<?xml version="1.0" standalone="no"?>
<!DOCTYPE svg PUBLIC "-//W3C//DTD SVG 20010904//EN"
 "http://www.w3.org/TR/2001/REC-SVG-20010904/DTD/svg10.dtd">
<svg version="1.0" xmlns="http://www.w3.org/2000/svg"
 width="1171.000000pt" height="695.000000pt" viewBox="0 0 1171.000000 695.000000"
 preserveAspectRatio="xMidYMid meet">

<g transform="translate(0.000000,695.000000) scale(0.100000,-0.100000)"
fill="#000000" stroke="none">
<path d="M3710 6920 c-317 -62 -539 -110 -624 -135 -88 -26 -242 -93 -268
-118 -7 -7 -119 -59 -248 -116 -351 -155 -625 -295 -625 -319 0 -6 -4 -14 -9
-19 -5 -5 -6 -2 -1 6 5 9 3 12 -6 9 -8 -3 -13 -11 -11 -17 1 -7 -2 -10 -8 -6
-13 8 -180 -110 -410 -294 -319 -254 -615 -580 -823 -909 -341 -536 -505
-1261 -422 -1860 56 -399 231 -895 420 -1187 236 -365 711 -858 1076 -1117
334 -237 993 -550 1435 -681 257 -77 628 -158 712 -156 56 2 61 0 -154 39
-667 119 -1329 386 -1920 776 -199 131 -323 233 -518 423 -529 521 -764 885
-935 1451 -133 440 -152 784 -71 1265 46 270 110 484 209 705 184 406 440 735
878 1128 244 218 429 350 725 518 47 26 84 53 81 58 -4 5 -1 6 5 2 6 -4 83 29
170 73 152 76 607 265 669 277 25 5 30 2 40 -23 10 -28 11 -27 6 7 l-5 36 149
47 c81 26 182 56 223 66 61 16 364 77 470 94 14 2 5 5 -20 5 -25 0 -110 -12
-190 -28z m-520 -136 c-74 -24 -153 -46 -174 -50 -30 -4 -36 -8 -25 -15 10 -8
9 -9 -7 -4 -24 6 -56 -3 -49 -15 3 -5 -5 -6 -17 -3 -19 4 -20 3 -8 -7 12 -9
11 -10 -9 -5 -17 5 -22 4 -16 -5 6 -9 4 -11 -4 -5 -18 11 -5 20 77 55 69 29
320 100 352 99 8 0 -46 -21 -120 -45z m-1070 -459 c0 -2 -10 -9 -22 -15 -22
-11 -22 -10 -4 4 21 17 26 19 26 11z m-55 -33 c-17 -15 -105 -63 -105 -58 0 3
24 19 53 36 52 30 69 37 52 22z"/>
<path d="M6112 6924 c713 -135 1509 -470 2046 -861 386 -282 751 -654 987
-1008 127 -191 275 -499 341 -707 9 -31 21 -55 26 -52 4 3 5 -1 3 -8 -3 -8 10
-74 29 -148 68 -266 80 -367 80 -645 1 -276 -15 -411 -75 -656 -89 -368 -213
-667 -379 -917 -181 -271 -526 -653 -793 -877 -566 -474 -1381 -838 -2272
-1015 -77 -16 -126 -29 -108 -29 18 -1 99 13 180 29 739 153 1455 452 1990
834 347 247 767 679 1010 1041 196 290 363 737 445 1185 19 106 22 160 22 350
1 397 -61 742 -190 1073 -113 286 -323 621 -572 908 -107 124 -374 387 -492
485 -531 441 -1174 764 -1875 942 -212 54 -447 102 -493 101 -21 0 18 -11 90
-25z m888 -236 c10 -6 7 -7 -10 -2 -14 3 -32 11 -40 16 -10 6 -7 7 10 2 14 -3
32 -11 40 -16z m80 -30 c10 -6 7 -7 -10 -2 -14 3 -32 11 -40 16 -10 6 -7 7 10
2 14 -3 32 -11 40 -16z m50 -18 c8 -5 11 -10 5 -10 -5 0 -17 5 -25 10 -8 5
-10 10 -5 10 6 0 17 -5 25 -10z m90 -36 c33 -15 59 -29 57 -31 -2 -2 -33 10
-68 26 -80 37 -72 40 11 5z m110 -49 c14 -8 21 -14 15 -14 -5 0 -21 6 -35 14
-14 8 -20 14 -15 14 6 0 21 -6 35 -14z m110 -50 c25 -13 41 -24 35 -24 -5 0
-30 11 -55 24 -25 13 -40 24 -35 24 6 0 30 -11 55 -24z"/>
<path d="M3445 6673 c-16 -3 -34 -8 -40 -13 -5 -4 -66 -24 -134 -44 -150 -45
-216 -77 -312 -154 -140 -111 -179 -171 -200 -303 -24 -154 2 -296 73 -404
144 -217 385 -349 678 -371 l90 -7 0 -208 0 -209 50 0 50 0 0 -209 0 -208 -67
-6 c-95 -8 -224 -57 -304 -116 -112 -82 -211 -235 -232 -356 l-11 -65 -88 0
c-87 0 -88 0 -88 25 l0 25 -100 0 -100 0 0 50 0 50 -167 -2 -168 -2 163 -3
162 -3 0 -95 0 -95 -162 -3 -163 -3 168 -2 167 -2 0 50 0 50 95 0 c95 0 95 0
95 -25 0 -25 0 -25 93 -25 l93 0 11 -71 c24 -152 115 -276 272 -369 127 -76
159 -84 316 -84 103 -1 157 4 205 17 330 89 508 377 409 665 -28 81 -71 143
-156 222 -99 93 -183 133 -325 156 l-108 17 0 214 0 213 -50 0 -50 0 0 203 0
203 98 12 c377 44 685 263 756 539 20 77 20 119 0 196 -46 179 -177 338 -354
431 -83 44 -253 101 -340 115 -63 11 -264 13 -325 4z m407 -37 c163 -41 377
-162 464 -260 25 -28 61 -82 80 -121 66 -134 79 -237 43 -335 -12 -30 -22 -65
-22 -77 -1 -12 -5 -21 -8 -20 -6 2 -79 -100 -79 -110 0 -2 6 -1 13 3 6 4 -1
-7 -17 -24 -16 -17 -32 -29 -36 -27 -4 2 -18 -7 -31 -22 -111 -119 -362 -226
-572 -241 -252 -19 -445 30 -648 164 -173 114 -270 289 -270 485 0 50 6 109
15 139 9 29 13 57 9 63 -3 5 -2 7 4 4 11 -7 36 40 28 53 -3 5 0 12 6 16 8 5 9
3 4 -7 -4 -8 8 4 28 26 20 22 36 43 37 48 0 13 124 98 193 133 101 51 364 136
410 132 20 -2 37 1 37 6 0 16 211 -2 312 -28z m-1039 -351 c-3 -9 -8 -14 -10
-11 -3 3 -2 9 2 15 9 16 15 13 8 -4z m1580 -506 c-10 -17 -24 -36 -32 -42 -8
-7 -2 7 14 31 32 49 45 57 18 11z m-648 -1259 c4 -6 -30 -10 -97 -9 -69 1 -93
4 -73 9 45 11 163 11 170 0z m161 -31 c24 -6 44 -16 44 -22 0 -6 3 -7 6 -4 4
4 38 -10 75 -29 94 -50 190 -152 237 -253 32 -68 36 -85 35 -161 0 -106 -6
-172 -14 -158 -3 5 -9 -1 -12 -14 -9 -35 -82 -146 -130 -197 -23 -25 -33 -38
-22 -30 19 13 19 13 6 -4 -8 -9 -16 -15 -19 -12 -3 3 -19 -5 -36 -18 -87 -65
-159 -91 -296 -108 -137 -16 -299 18 -405 86 -74 47 -178 162 -216 240 -28 57
-34 81 -37 155 -8 156 29 256 138 373 76 82 148 132 222 151 65 18 359 21 424
5z m-789 -401 c-3 -8 -6 -5 -6 6 -1 11 2 17 5 13 3 -3 4 -12 1 -19z m-10 -75
c-3 -10 -5 -2 -5 17 0 19 2 27 5 18 2 -10 2 -26 0 -35z m0 -75 c-2 -13 -4 -5
-4 17 -1 22 1 32 4 23 2 -10 2 -28 0 -40z m10 -60 c-3 -8 -6 -5 -6 6 -1 11 2
17 5 13 3 -3 4 -12 1 -19z m1149 -100 c-23 -47 -115 -163 -116 -147 0 4 18 29
40 55 22 27 52 72 67 101 36 67 44 60 9 -9z m-1036 -101 l42 -52 -47 49 c-25
27 -57 71 -71 97 -34 67 -30 75 5 11 16 -29 48 -76 71 -105z"/>
<path d="M2990 6141 c0 -34 4 -61 10 -61 6 0 10 11 10 25 0 19 5 25 23 25 33
0 49 15 45 41 -2 20 -9 24 -45 27 l-43 3 0 -60z m73 37 c7 -23 -4 -38 -29 -38
-19 0 -24 5 -24 25 0 20 5 25 24 25 13 0 26 -6 29 -12z"/>
<path d="M3323 6140 c0 -36 2 -50 4 -32 2 17 2 47 0 65 -2 17 -4 3 -4 -33z"/>
<path d="M3701 6144 c-12 -32 -19 -59 -16 -63 3 -3 8 5 12 17 7 30 59 31 68 2
3 -11 10 -20 16 -20 7 0 -21 86 -37 112 -11 18 -22 5 -43 -48z m45 -11 c-2 -3
-11 -3 -19 -1 -11 2 -12 9 -5 28 l10 25 9 -24 c5 -13 7 -26 5 -28z"/>
<path d="M3100 6123 c0 -24 5 -43 10 -43 6 0 10 18 10 39 0 29 5 41 18 44 9 3
5 4 -10 4 -26 -1 -28 -4 -28 -44z"/>
<path d="M3163 6125 c0 -27 2 -38 4 -22 2 15 2 37 0 50 -2 12 -4 0 -4 -28z"/>
<path d="M3196 6148 c24 -79 34 -83 54 -22 15 45 6 56 -10 12 l-12 -33 -14 33
c-16 36 -29 44 -18 10z"/>
<path d="M3280 6125 c0 -25 5 -45 10 -45 6 0 10 20 10 45 0 25 -4 45 -10 45
-5 0 -10 -20 -10 -45z"/>
<path d="M3358 6144 c-22 -47 32 -87 63 -47 13 16 12 17 -3 4 -19 -14 -48 -9
-48 9 0 5 14 10 30 10 31 0 39 17 18 38 -20 20 -48 14 -60 -14z m56 1 c4 -11
-1 -15 -19 -15 -24 0 -32 10 -18 23 11 12 31 8 37 -8z"/>
<path d="M3454 6156 c-3 -8 -4 -27 -2 -43 2 -23 8 -28 31 -28 15 1 26 -4 24
-10 -2 -5 -16 -10 -30 -10 -16 1 -23 -3 -18 -8 5 -5 21 -7 35 -3 24 6 26 11
26 59 0 52 -1 53 -30 55 -19 1 -33 -3 -36 -12z m51 -31 c0 -23 -4 -30 -20 -30
-21 0 -31 25 -21 51 11 28 41 12 41 -21z"/>
<path d="M3552 6158 c-7 -7 -12 -21 -12 -33 0 -41 45 -60 70 -30 8 9 8 15 2
15 -6 0 -12 -5 -14 -12 -5 -14 -38 -4 -38 12 0 5 14 10 30 10 18 0 30 5 30 13
0 18 -21 37 -40 37 -9 0 -21 -5 -28 -12z m52 -13 c4 -11 -1 -15 -19 -15 -24 0
-32 10 -18 23 11 12 31 8 37 -8z"/>
<path d="M3813 6163 c-7 -2 -13 -20 -13 -39 0 -27 5 -35 24 -40 27 -6 46 1 46
18 0 7 -5 6 -15 -2 -21 -18 -45 -5 -45 25 0 31 24 42 48 24 15 -13 16 -12 3 4
-14 17 -25 20 -48 10z"/>
<path d="M3892 6158 c-6 -6 -12 -21 -12 -33 0 -41 45 -60 70 -30 8 9 8 15 2
15 -6 0 -12 -5 -14 -12 -7 -21 -38 0 -38 26 0 31 16 42 37 24 14 -11 16 -11
11 2 -6 19 -40 24 -56 8z"/>
<path d="M3983 6164 c-7 -3 -13 -21 -13 -40 0 -27 5 -35 24 -40 27 -6 46 1 46
18 0 7 -5 6 -15 -2 -16 -13 -45 -7 -45 10 0 5 16 10 35 10 31 0 34 2 26 23 -8
22 -34 31 -58 21z m45 -21 c2 -8 -6 -13 -22 -13 -25 0 -33 10 -19 24 10 10 36
3 41 -11z"/>
<path d="M4067 6163 c-15 -14 -5 -32 24 -42 37 -13 29 -36 -10 -26 -19 5 -23
4 -15 -5 17 -17 58 -8 62 13 3 12 -6 21 -27 28 -36 13 -31 34 6 24 16 -4 22
-2 18 5 -7 11 -48 14 -58 3z"/>
<path d="M4157 6163 c-14 -14 -6 -34 18 -43 33 -12 33 -34 0 -28 -13 3 -22 1
-19 -3 8 -13 40 -11 52 4 13 16 3 34 -22 38 -11 2 -21 10 -24 18 -3 10 2 13
21 9 15 -3 24 -1 21 3 -6 11 -38 12 -47 2z"/>
<path d="M3342 5988 c-7 -7 -12 -18 -12 -25 0 -12 12 -18 67 -38 18 -6 4 -35
-17 -35 -10 0 -26 7 -34 16 -9 8 -16 12 -16 7 0 -32 59 -44 81 -17 17 20 1 46
-32 54 -30 7 -39 40 -10 40 11 0 23 -4 26 -10 3 -5 11 -10 17 -10 7 0 6 6 -2
15 -15 18 -51 20 -68 3z"/>
<path d="M3613 5983 c-11 -22 -2 -95 12 -100 6 -2 9 19 8 53 -2 62 -7 75 -20
47z"/>
<path d="M3450 5925 c17 -40 17 -46 4 -60 -13 -13 -13 -15 -1 -15 8 0 23 24
36 56 23 61 21 88 -2 33 l-15 -34 -12 33 c-7 17 -16 32 -21 32 -4 0 0 -20 11
-45z"/>
<path d="M3525 5960 c-9 -14 3 -30 32 -41 32 -12 19 -33 -16 -24 -19 5 -23 4
-15 -5 17 -17 58 -8 62 12 2 12 -6 21 -22 28 -35 13 -34 34 0 26 17 -5 23 -3
19 4 -8 13 -52 13 -60 0z"/>
<path d="M3660 5944 c-14 -36 4 -66 37 -62 15 2 29 10 31 18 5 13 3 13 -11 1
-18 -14 -47 -9 -47 9 0 5 14 10 30 10 23 0 30 5 30 19 0 38 -56 42 -70 5z m58
-1 c2 -8 -6 -13 -22 -13 -25 0 -33 10 -19 24 10 10 36 3 41 -11z"/>
<path d="M3750 5925 c0 -25 5 -45 10 -45 6 0 10 18 10 40 0 29 4 40 15 40 11
0 15 -11 15 -40 0 -51 18 -53 22 -2 4 52 31 50 39 -3 l7 -40 -2 45 -1 45 -57
3 -58 2 0 -45z"/>
<path d="M4304 5688 l-19 -23 23 19 c21 18 27 26 19 26 -2 0 -12 -10 -23 -22z"/>
<path d="M3232 4098 l1 -63 6 50 6 50 14 -40 c19 -56 27 -61 40 -24 15 43 13
51 -4 14 l-13 -30 -14 50 c-22 73 -38 70 -36 -7z"/>
<path d="M3320 4145 c-7 -9 -10 -18 -6 -22 3 -3 7 0 8 8 1 8 4 -11 8 -41 l7
-55 1 63 c1 34 0 62 -2 62 -2 0 -9 -7 -16 -15z"/>
<path d="M3600 4148 c0 -9 -6 -19 -12 -21 -10 -4 -10 -6 0 -6 7 -1 12 -16 12
-41 0 -31 4 -40 18 -40 12 0 14 3 4 8 -7 5 -12 27 -11 55 1 26 -1 50 -4 54 -4
3 -7 -1 -7 -9z"/>
<path d="M3375 4120 c-4 -6 -4 -14 -1 -17 3 -4 6 -1 6 5 0 7 9 12 20 12 30 0
24 -17 -11 -29 -45 -16 -36 -46 14 -46 l38 -1 -3 41 c-3 35 -6 40 -30 43 -14
2 -29 -2 -33 -8z m42 -55 c-4 -8 -13 -15 -22 -15 -21 0 -19 28 3 32 22 5 26 2
19 -17z"/>
<path d="M3460 4085 c0 -25 5 -45 10 -45 6 0 10 20 10 45 0 25 -4 45 -10 45
-5 0 -10 -20 -10 -45z"/>
<path d="M3501 4081 c1 -25 3 -37 6 -26 2 11 6 30 9 43 8 39 38 23 45 -23 l7
-40 -2 45 c-1 44 -2 45 -33 46 -33 1 -33 1 -32 -45z"/>
<path d="M3653 4124 c-7 -3 -13 -21 -13 -40 0 -27 5 -35 24 -40 27 -6 46 1 46
18 0 7 -5 6 -15 -2 -16 -13 -45 -7 -45 10 0 5 16 10 35 10 31 0 34 2 26 23 -8
22 -34 31 -58 21z m45 -21 c2 -8 -6 -13 -22 -13 -25 0 -33 10 -19 24 10 10 36
3 41 -11z"/>
<path d="M3741 4080 l2 -45 6 40 c4 27 12 41 24 43 14 3 17 -4 17 -37 0 -23 5
-41 10 -41 15 0 12 66 -3 78 -7 6 -23 10 -35 9 -19 -1 -22 -7 -21 -47z"/>
<path d="M3837 4124 c-15 -15 -6 -24 13 -12 14 9 22 10 31 1 8 -8 3 -13 -21
-18 -25 -5 -31 -11 -28 -28 2 -17 10 -22 36 -23 33 -1 33 0 30 40 -3 35 -6 41
-28 44 -14 2 -29 0 -33 -4z m49 -50 c-3 -9 -6 -18 -6 -20 0 -2 -9 -4 -20 -4
-25 0 -27 27 -2 33 31 8 34 7 28 -9z"/>
<path d="M3920 4084 c0 -54 18 -59 22 -7 2 26 8 39 20 41 13 3 18 -6 21 -40
l4 -43 -1 45 c-1 44 -2 45 -33 47 -33 1 -33 1 -33 -43z"/>
<path d="M4024 4116 c-3 -8 -4 -27 -2 -43 4 -34 37 -43 59 -16 13 16 12 17 -3
4 -24 -18 -48 -7 -48 24 0 27 31 48 38 27 2 -7 8 -12 14 -12 6 0 6 6 -2 15
-16 19 -49 19 -56 1z"/>
<path d="M4112 4118 c-7 -7 -12 -21 -12 -33 0 -41 45 -60 70 -30 9 10 9 15 1
15 -6 0 -11 -4 -11 -10 0 -15 -26 -12 -40 5 -11 13 -7 15 24 15 23 0 36 5 36
13 0 18 -21 37 -40 37 -9 0 -21 -5 -28 -12z m46 -16 c2 -7 -7 -12 -23 -12 -24
0 -26 2 -15 15 14 17 31 16 38 -3z"/>
<path d="M3442 3948 c-7 -7 -12 -18 -12 -25 0 -12 12 -18 67 -38 18 -6 4 -35
-17 -35 -10 0 -26 7 -34 16 -9 8 -16 12 -16 7 0 -32 59 -44 81 -17 17 20 1 46
-32 54 -30 7 -39 40 -10 40 11 0 23 -4 26 -10 3 -5 11 -10 17 -10 7 0 6 6 -2
15 -15 18 -51 20 -68 3z"/>
<path d="M3713 3943 c-11 -22 -2 -95 12 -100 6 -2 9 19 8 53 -2 62 -7 75 -20
47z"/>
<path d="M3550 3885 c17 -40 17 -46 4 -60 -13 -13 -13 -15 -1 -15 8 0 23 24
36 56 23 61 21 88 -2 33 l-15 -34 -12 33 c-7 17 -16 32 -21 32 -4 0 0 -20 11
-45z"/>
<path d="M3625 3920 c-9 -14 3 -30 32 -41 32 -12 19 -33 -16 -24 -19 5 -23 4
-15 -5 17 -17 58 -8 62 12 2 12 -6 21 -22 28 -35 13 -34 34 0 26 17 -5 23 -3
19 4 -8 13 -52 13 -60 0z"/>
<path d="M3760 3904 c-14 -36 4 -66 37 -62 15 2 29 10 31 18 5 13 3 13 -11 1
-18 -14 -47 -9 -47 9 0 5 14 10 30 10 23 0 30 5 30 19 0 38 -56 42 -70 5z m58
-1 c2 -8 -6 -13 -22 -13 -25 0 -33 10 -19 24 10 10 36 3 41 -11z"/>
<path d="M3850 3885 c0 -25 5 -45 10 -45 6 0 10 18 10 40 0 29 4 40 15 40 11
0 15 -11 15 -40 0 -51 18 -53 22 -2 4 52 31 50 39 -3 l7 -40 -2 45 -1 45 -57
3 -58 2 0 -45z"/>
<path d="M6033 6200 c-122 -17 -292 -111 -362 -199 -17 -22 -43 -65 -57 -96
-23 -49 -26 -67 -22 -124 10 -133 72 -214 220 -284 l88 -42 2 -570 3 -570 2
568 c2 341 7 567 12 567 6 0 40 -8 78 -17 48 -12 113 -17 223 -17 132 -1 167
3 233 22 226 65 364 208 366 380 2 123 -99 248 -266 331 -63 31 -147 56 -137
40 3 -5 1 -9 -5 -9 -5 0 -11 5 -13 11 -5 14 -282 21 -365 9z m387 -23 c25 0
36 -2 26 -5 -13 -3 0 -11 38 -23 31 -11 62 -16 68 -13 6 4 8 3 5 -2 -3 -5 19
-22 49 -38 64 -34 126 -91 145 -134 7 -17 17 -28 21 -26 4 3 5 -3 1 -12 -4
-12 -3 -15 5 -10 7 4 10 2 7 -6 -3 -8 -1 -32 5 -53 l10 -40 -5 45 c-3 37 -2
41 6 21 6 -16 6 -48 0 -91 -15 -108 -58 -175 -156 -245 -121 -86 -232 -117
-425 -117 -181 0 -309 31 -434 107 -32 19 -61 33 -66 30 -8 -5 -63 49 -60 59
0 4 -11 32 -27 64 -55 113 -29 226 78 330 30 29 82 66 120 84 37 18 65 37 62
42 -3 5 -1 6 6 2 15 -9 53 3 46 15 -3 5 0 7 7 4 7 -3 33 2 58 10 36 12 78 14
205 9 88 -3 180 -6 205 -7z"/>
<path d="M5716 5862 c-16 -26 -44 -112 -37 -112 6 0 13 9 16 20 9 29 61 28 68
-2 4 -12 9 -19 13 -15 8 8 -35 117 -47 117 -4 0 -10 -4 -13 -8z m27 -42 c4
-15 0 -20 -14 -20 -20 0 -23 8 -13 34 7 20 20 13 27 -14z"/>
<path d="M5801 5808 c1 -35 4 -51 6 -36 3 22 10 27 35 30 66 6 58 68 -8 68
l-34 0 1 -62z m69 27 c0 -21 -5 -25 -30 -25 -25 0 -30 4 -30 25 0 21 5 25 30
25 25 0 30 -4 30 -25z"/>
<path d="M5910 5810 c0 -33 4 -60 10 -60 6 0 10 27 10 60 0 33 -4 60 -10 60
-6 0 -10 -27 -10 -60z"/>
<path d="M6250 5850 c0 -13 -5 -18 -15 -14 -21 8 -45 -14 -45 -41 0 -28 19
-45 48 -42 20 1 22 7 22 59 0 32 -2 58 -5 58 -3 0 -5 -9 -5 -20z m-5 -55 c0
-39 -31 -48 -41 -11 -7 30 2 48 24 44 11 -2 17 -13 17 -33z"/>
<path d="M6608 5848 c-8 -22 7 -91 20 -94 7 -1 8 0 2 3 -12 6 -13 70 -1 75 5
2 3 8 -4 15 -10 9 -15 9 -17 1z"/>
<path d="M6012 5828 c-7 -7 -12 -21 -12 -33 0 -41 45 -60 70 -30 9 10 9 15 1
15 -6 0 -11 -4 -11 -10 0 -15 -26 -12 -40 5 -11 13 -7 15 24 15 23 0 36 5 36
13 0 18 -21 37 -40 37 -9 0 -21 -5 -28 -12z m46 -16 c2 -7 -7 -12 -23 -12 -24
0 -26 2 -15 15 14 17 31 16 38 -3z"/>
<path d="M6101 5791 l2 -46 6 40 c4 27 12 41 24 43 14 3 17 -4 17 -37 0 -23 5
-41 11 -41 6 0 9 17 7 43 -3 40 -5 42 -35 43 -33 1 -33 1 -32 -45z"/>
<path d="M6291 5775 c1 -33 4 -50 6 -38 3 14 9 20 19 16 20 -7 44 15 44 42 0
28 -19 45 -48 42 -20 -1 -22 -6 -21 -62z m54 36 c8 -26 -5 -53 -24 -49 -29 6
-27 68 3 68 8 0 17 -8 21 -19z"/>
<path d="M6392 5828 c-7 -7 -12 -21 -12 -33 0 -46 53 -62 71 -21 21 45 -26 87
-59 54z m43 -33 c0 -33 -28 -47 -39 -19 -10 25 3 56 22 52 11 -2 17 -13 17
-33z"/>
<path d="M6483 5795 c0 -27 2 -38 4 -22 2 15 2 37 0 50 -2 12 -4 0 -4 -28z"/>
<path d="M6510 5794 c0 -54 18 -59 22 -7 2 26 8 39 20 41 13 3 18 -6 21 -40
l4 -43 -1 45 c-1 44 -2 45 -33 47 -33 1 -33 1 -33 -43z"/>
<path d="M6657 5833 c-15 -14 -5 -32 24 -42 37 -13 29 -36 -10 -26 -19 5 -23
4 -15 -5 17 -17 58 -8 62 13 3 12 -6 21 -27 28 -36 13 -31 34 6 24 16 -4 22
-2 18 5 -7 11 -48 14 -58 3z"/>
<path d="M5690 5595 c13 -14 26 -25 28 -25 3 0 -5 11 -18 25 -13 14 -26 25
-28 25 -3 0 5 -11 18 -25z"/>
<path d="M4703 6033 l197 -3 0 -410 0 -410 -250 0 -250 0 0 -105 0 -105 250 0
250 0 0 -503 c0 -277 -3 -578 -7 -668 l-6 -164 -79 -57 c-92 -68 -168 -165
-198 -252 -42 -126 -21 -305 50 -415 34 -54 167 -186 204 -202 30 -14 36 -71
36 -346 l0 -203 -80 0 -80 0 0 -105 0 -105 80 0 80 0 0 -164 0 -163 -72 -7
c-225 -21 -425 -132 -495 -275 -39 -79 -39 -173 0 -252 54 -111 193 -207 367
-255 91 -25 319 -25 410 0 221 60 375 194 394 341 l6 40 -11 -35 c-31 -99 -44
-125 -98 -179 -234 -236 -752 -239 -989 -4 -70 70 -96 128 -96 218 0 90 26
148 96 218 237 235 755 232 989 -4 54 -54 67 -80 98 -179 l11 -35 -6 40 c-24
181 -248 336 -522 361 l-72 7 0 163 0 164 80 0 80 0 0 105 0 105 -79 0 -79 0
-4 258 c-2 141 -3 258 -2 260 1 2 37 -14 80 -36 95 -48 234 -94 369 -124 133
-29 384 -31 525 -4 191 37 353 109 508 226 77 58 185 163 193 189 4 11 76 -3
352 -66 191 -44 347 -77 347 -74 0 3 -149 40 -331 81 -181 41 -335 77 -340 81
-6 3 -4 28 6 65 19 72 21 194 5 254 -29 110 -129 253 -224 322 l-39 28 296 0
297 0 -2 63 -2 62 -3 -57 -4 -58 -299 0 -299 0 -51 30 c-63 37 -221 105 -311
133 l-69 22 -2 140 -2 140 -3 -139 -4 -139 -37 7 c-20 3 -96 11 -168 17 -108
9 -152 8 -255 -6 -175 -22 -265 -49 -408 -122 -69 -34 -125 -62 -126 -60 -1 1
1 298 3 660 l4 657 249 0 249 0 0 105 0 105 -250 0 -250 0 0 415 0 415 -202
-2 -203 -3 198 -2z m697 -928 l0 -95 -495 0 -495 0 0 95 0 95 495 0 495 0 0
-95z m345 -1255 l-40 -7 40 -2 c22 -1 68 -7 102 -14 34 -8 67 -10 73 -5 5 4 7
5 5 1 -3 -4 34 -18 82 -30 98 -27 198 -73 299 -139 72 -47 79 -51 68 -31 -6 8
-3 8 9 -1 9 -8 15 -17 14 -20 -1 -4 28 -35 65 -70 112 -107 167 -241 154 -371
-4 -36 -9 -79 -10 -96 -4 -42 -16 -75 -27 -75 -5 0 -2 14 6 31 9 17 15 32 13
34 -2 2 -22 -32 -46 -76 -44 -81 -50 -106 -12 -43 12 19 24 33 27 30 7 -6 -47
-76 -56 -73 -4 1 -31 -22 -61 -51 -143 -140 -397 -259 -630 -293 -116 -17
-379 -6 -492 20 -257 59 -421 142 -571 289 -147 144 -194 329 -127 504 57 151
226 292 472 393 43 18 74 36 70 40 -4 5 -2 5 5 2 6 -4 35 -2 63 5 41 9 48 14
34 20 -13 5 -8 6 12 3 17 -3 44 0 60 6 24 10 257 25 404 26 l35 0 -40 -7z m98
-7 c-7 -2 -21 -2 -30 0 -10 3 -4 5 12 5 17 0 24 -2 18 -5z m54 -9 c-3 -3 -12
-4 -19 -1 -8 3 -5 6 6 6 11 1 17 -2 13 -5z m-650 -20 c-3 -3 -12 -4 -19 -1 -8
3 -5 6 6 6 11 1 17 -2 13 -5z m-187 -1729 l0 -95 -155 0 -155 0 0 95 0 95 155
0 155 0 0 -95z"/>
<path d="M4481 5108 c1 -35 4 -51 6 -35 4 22 10 27 32 27 31 0 51 16 51 41 0
20 -20 29 -61 29 l-29 0 1 -62z m69 27 c0 -21 -5 -25 -30 -25 -25 0 -30 4 -30
25 0 21 5 25 30 25 25 0 30 -4 30 -25z"/>
<path d="M4744 5156 c-3 -9 -17 -16 -30 -16 -22 0 -24 -4 -23 -47 l2 -48 6 40
c8 55 38 62 43 9 5 -61 23 -51 21 12 -2 60 -9 77 -19 50z"/>
<path d="M5122 5110 c0 -36 2 -56 5 -45 2 11 6 30 9 43 8 39 38 23 45 -23 l7
-40 -2 45 c-1 41 -3 45 -26 45 -16 0 -27 7 -32 20 -3 11 -6 -9 -6 -45z"/>
<path d="M4597 5134 c-15 -15 -6 -24 13 -12 14 9 22 10 31 1 8 -8 3 -13 -21
-18 -25 -5 -31 -11 -28 -28 2 -17 10 -22 36 -23 33 -1 33 0 30 40 -3 35 -6 41
-28 44 -14 2 -29 0 -33 -4z m53 -41 c-1 -19 -19 -35 -34 -30 -21 8 -20 24 2
30 28 7 32 7 32 0z"/>
<path d="M4791 5091 c1 -25 3 -37 6 -26 2 11 6 30 9 43 8 39 38 23 45 -23 l7
-40 -2 45 c-1 44 -2 45 -33 46 -33 1 -33 1 -32 -45z"/>
<path d="M4892 5128 c-7 -7 -12 -21 -12 -33 0 -41 45 -60 70 -30 15 18 7 19
-20 3 -17 -11 -22 -10 -30 2 -8 12 -3 16 25 18 39 4 40 5 25 33 -12 21 -40 25
-58 7z m46 -15 c2 -8 -6 -13 -22 -13 -19 0 -24 4 -19 15 6 18 34 16 41 -2z"/>
<path d="M4982 5090 c1 -40 2 -41 5 -10 2 19 11 40 20 47 13 10 13 12 -6 10
-18 -1 -21 -7 -19 -47z"/>
<path d="M5037 5133 c-15 -14 -5 -32 24 -42 36 -12 29 -35 -8 -28 -16 3 -21 1
-15 -5 15 -15 56 -5 60 15 3 12 -6 21 -27 28 -33 12 -32 34 0 26 11 -3 19 -1
19 4 0 10 -43 12 -53 2z"/>
<path d="M5210 5095 c0 -25 5 -45 10 -45 6 0 10 20 10 45 0 25 -4 45 -10 45
-5 0 -10 -20 -10 -45z"/>
<path d="M5251 5075 c1 -33 4 -51 6 -39 3 16 10 20 28 16 19 -3 27 2 36 21 17
37 -3 68 -41 65 -30 -2 -30 -3 -29 -63z m54 20 c0 -33 -28 -47 -39 -19 -10 25
3 56 22 52 11 -2 17 -13 17 -33z"/>
<path d="M5092 3208 c-2 -55 -1 -58 25 -64 41 -11 58 6 61 65 2 29 -1 51 -7
51 -5 0 -11 -24 -13 -52 -3 -49 -5 -53 -28 -53 -23 0 -25 5 -31 55 l-6 55 -1
-57z"/>
<path d="M5500 3245 c-16 -19 -5 -34 37 -51 19 -8 33 -20 30 -27 -6 -19 -37
-20 -58 -1 -20 18 -27 6 -7 -14 30 -30 93 2 71 36 -5 9 -21 19 -34 22 -34 8
-38 40 -5 40 14 0 26 -4 26 -10 0 -5 5 -10 11 -10 8 0 8 5 -1 15 -16 19 -54
19 -70 0z"/>
<path d="M5207 3223 c-15 -14 -5 -32 24 -42 37 -13 29 -36 -10 -26 -19 5 -23
4 -15 -5 17 -17 58 -8 62 13 3 12 -6 21 -27 28 -36 13 -31 34 6 24 16 -4 22
-2 18 5 -7 11 -48 14 -58 3z"/>
<path d="M5303 3224 c-7 -3 -13 -21 -13 -40 0 -27 5 -35 24 -40 27 -6 46 1 46
18 0 7 -5 6 -15 -2 -16 -13 -45 -7 -45 10 0 5 16 10 35 10 31 0 34 2 26 23 -8
22 -34 31 -58 21z m45 -21 c2 -8 -6 -13 -22 -13 -25 0 -33 10 -19 24 10 10 36
3 41 -11z"/>
<path d="M5392 3183 c1 -40 2 -42 5 -13 2 19 11 41 20 48 15 11 14 12 -5 12
-20 0 -22 -5 -20 -47z"/>
<path d="M5612 3218 c-7 -7 -12 -21 -12 -33 0 -41 45 -60 70 -30 14 17 0 21
-17 4 -13 -13 -43 -5 -43 11 0 5 16 10 35 10 38 0 40 2 25 31 -12 21 -40 25
-58 7z m46 -15 c2 -8 -6 -13 -22 -13 -19 0 -24 4 -19 15 6 18 34 16 41 -2z"/>
<path d="M5701 3180 l2 -45 6 40 c8 56 33 58 54 3 18 -46 27 -43 46 11 15 45
6 52 -12 10 l-15 -34 -12 33 c-10 27 -17 32 -41 30 -28 -2 -29 -4 -28 -48z"/>
<path d="M5843 3185 c0 -27 2 -38 4 -22 2 15 2 37 0 50 -2 12 -4 0 -4 -28z"/>
<path d="M5879 3209 c-24 -46 29 -93 61 -54 8 9 8 15 2 15 -6 0 -12 -5 -14
-12 -7 -21 -38 0 -38 27 0 27 31 48 38 27 2 -7 8 -12 14 -12 6 0 6 6 -2 15
-18 22 -47 18 -61 -6z"/>
<path d="M5972 3218 c-7 -7 -12 -21 -12 -33 0 -41 45 -60 70 -30 14 17 0 21
-17 4 -13 -13 -43 -5 -43 11 0 5 16 10 35 10 38 0 40 2 25 31 -12 21 -40 25
-58 7z m46 -15 c2 -8 -6 -13 -22 -13 -19 0 -24 4 -19 15 6 18 34 16 41 -2z"/>
<path d="M6057 3223 c-15 -14 -5 -32 24 -42 37 -13 29 -36 -10 -26 -19 5 -23
4 -15 -5 17 -17 58 -8 62 13 3 12 -6 21 -27 28 -36 13 -31 34 6 24 16 -4 22
-2 18 5 -7 11 -48 14 -58 3z"/>
<path d="M4806 2128 c-9 -12 -16 -29 -16 -38 0 -27 30 -60 55 -60 25 0 61 28
50 39 -4 3 -11 -2 -16 -12 -22 -39 -73 -10 -67 39 4 36 31 53 58 36 11 -7 20
-8 20 -3 0 5 -7 12 -16 15 -30 11 -53 6 -68 -16z"/>
<path d="M4921 2088 c1 -35 4 -51 6 -35 6 35 36 36 59 2 9 -14 21 -25 26 -25
6 0 3 11 -5 24 -11 16 -12 27 -6 33 6 6 9 21 7 34 -2 20 -10 24 -45 27 l-43 3
1 -63z m74 27 c0 -15 -8 -21 -32 -23 -30 -3 -33 -1 -33 23 0 24 3 26 33 23 24
-2 32 -8 32 -23z"/>
<path d="M3412 5325 c-2 -55 10 -75 43 -75 33 0 45 20 43 75 -1 38 -2 41 -5
15 -7 -69 -12 -80 -38 -80 -26 0 -31 11 -38 80 -3 26 -4 23 -5 -15z"/>
<path d="M6010 5310 l0 -61 37 3 c29 2 41 9 53 31 13 24 13 30 0 55 -12 21
-24 28 -53 30 l-37 3 0 -61z m68 38 c7 -7 12 -24 12 -38 0 -32 -17 -50 -47
-50 -21 0 -23 4 -23 50 0 46 2 50 23 50 13 0 28 -5 35 -12z"/>
<path d="M9530 5045 c-18 -22 -6 -42 29 -50 17 -4 31 -13 31 -21 0 -23 -29
-28 -50 -9 -17 15 -20 16 -20 3 0 -30 59 -38 81 -12 17 20 1 46 -32 54 -30 7
-39 40 -10 40 11 0 23 -4 26 -10 3 -5 11 -10 17 -10 7 0 6 6 -2 15 -16 19 -54
19 -70 0z"/>
<path d="M9931 5048 c-1 -13 -9 -18 -31 -18 -29 0 -30 -1 -29 -47 l2 -48 6 40
c5 32 11 41 29 43 20 3 22 -1 22 -37 0 -33 4 -41 18 -40 10 0 12 3 5 6 -7 2
-13 20 -13 39 0 20 5 34 13 34 8 0 9 3 1 8 -6 4 -14 14 -17 22 -4 12 -6 11 -6
-2z"/>
<path d="M10022 5000 c0 -36 2 -56 5 -45 2 11 6 30 9 43 8 40 34 27 34 -18 0
-22 5 -40 11 -40 6 0 9 17 7 43 -3 37 -6 42 -30 45 -15 2 -29 11 -31 20 -3 9
-5 -12 -5 -48z"/>
<path d="M10771 5048 c-1 -9 -7 -19 -13 -21 -10 -4 -10 -6 0 -6 7 -1 12 -16
12 -41 0 -32 4 -40 18 -39 10 0 12 3 5 6 -7 2 -13 20 -13 39 0 20 5 34 13 34
8 0 9 3 1 8 -6 4 -14 14 -17 22 -4 12 -6 12 -6 -2z"/>
<path d="M10993 5043 c-11 -22 -2 -95 12 -100 6 -2 9 19 8 53 -2 62 -7 75 -20
47z"/>
<path d="M9631 4981 c1 -25 3 -37 6 -26 2 11 6 30 9 43 8 40 34 27 34 -18 0
-22 5 -40 10 -40 6 0 10 18 10 40 0 29 4 40 15 40 11 0 15 -11 15 -40 0 -22 5
-40 11 -40 6 0 9 17 7 43 l-3 42 -57 1 -58 1 1 -46z"/>
<path d="M9780 5020 c-8 -5 -11 -12 -7 -17 5 -4 12 -1 17 6 5 9 15 11 26 7 16
-6 14 -10 -14 -22 -47 -19 -41 -48 11 -51 33 -1 37 2 37 24 0 52 -32 77 -70
53z m48 -47 c-4 -22 -38 -30 -38 -10 0 14 13 24 33 26 5 1 7 -7 5 -16z"/>
<path d="M10120 5016 c-28 -35 11 -93 48 -70 35 22 22 84 -18 84 -10 0 -23 -7
-30 -14z m48 -25 c2 -13 -1 -28 -8 -35 -16 -15 -40 18 -33 45 7 27 37 20 41
-10z"/>
<path d="M10200 4983 c0 -53 18 -57 22 -5 4 53 32 51 37 -3 l5 -40 5 40 c4 27
12 41 24 43 14 3 17 -4 17 -37 0 -23 5 -41 10 -41 12 0 13 59 2 76 -4 6 -33
11 -64 11 l-58 0 0 -44z"/>
<path d="M10350 5009 c-18 -34 2 -71 37 -67 14 2 29 10 31 18 5 13 3 13 -11 1
-18 -14 -47 -9 -47 9 0 5 16 10 35 10 31 0 34 2 26 23 -11 31 -56 35 -71 6z
m58 -6 c2 -8 -6 -13 -22 -13 -25 0 -33 10 -19 24 10 10 36 3 41 -11z"/>
<path d="M10494 5016 c-3 -8 -4 -27 -2 -43 2 -24 8 -28 32 -28 17 0 31 6 34
15 5 13 3 13 -11 1 -23 -19 -47 -7 -47 24 0 29 27 45 40 24 5 -7 12 -10 15 -7
12 12 -6 28 -31 28 -14 0 -27 -6 -30 -14z"/>
<path d="M10580 5016 c-28 -35 11 -93 48 -70 35 22 22 84 -18 84 -10 0 -23 -7
-30 -14z m45 -32 c0 -19 -5 -29 -15 -29 -16 0 -25 28 -16 51 10 25 31 10 31
-22z"/>
<path d="M10670 4986 c0 -25 5 -46 10 -46 6 0 10 18 10 41 0 33 3 40 18 37 11
-2 19 -16 23 -43 l7 -40 -2 45 c-1 43 -2 45 -33 48 -33 3 -33 3 -33 -42z"/>
<path d="M10823 5023 c-7 -2 -13 -20 -13 -39 0 -28 4 -35 25 -40 15 -4 32 -1
40 6 22 18 11 24 -14 8 -18 -11 -23 -11 -31 2 -8 12 -3 16 25 18 39 4 40 5 25
33 -10 18 -31 23 -57 12z m45 -20 c2 -8 -6 -13 -22 -13 -19 0 -24 4 -19 15 6
18 34 16 41 -2z"/>
<path d="M10912 5005 c8 -19 8 -28 -2 -40 -7 -8 -10 -18 -6 -22 3 -4 13 2 20
13 14 18 15 18 21 2 4 -10 14 -18 23 -18 13 0 12 3 -3 20 -15 17 -16 24 -7 45
6 14 8 25 3 25 -5 0 -12 -8 -16 -17 -6 -17 -7 -17 -16 0 -15 27 -30 20 -17 -8z"/>
<path d="M11080 4985 c0 -54 18 -60 22 -7 4 53 32 51 37 -3 l5 -40 5 40 c4 26
11 40 21 40 10 0 17 -14 21 -40 l7 -40 -2 45 -1 45 -57 3 -58 2 0 -45z"/>
<path d="M11230 5016 c-8 -10 -8 -16 -2 -16 6 0 14 5 17 10 8 12 35 13 35 1 0
-5 -14 -14 -31 -20 -44 -15 -36 -45 14 -49 l38 -3 -3 43 c-3 38 -6 43 -29 46
-14 2 -31 -4 -39 -12z m47 -51 c-4 -8 -13 -15 -22 -15 -21 0 -19 28 3 32 22 5
26 2 19 -17z"/>
<path d="M11320 4970 c0 -33 4 -60 10 -60 6 0 10 7 10 15 0 8 9 15 20 15 12 0
25 10 31 24 16 35 -3 66 -41 66 -30 0 -30 0 -30 -60z m55 14 c0 -19 -6 -30
-16 -32 -21 -4 -32 24 -18 49 14 28 34 18 34 -17z"/>
<path d="M3510 4630 l0 -61 37 3 c29 2 41 9 53 31 13 24 13 30 0 55 -12 21
-24 28 -53 30 l-37 3 0 -61z m68 38 c7 -7 12 -24 12 -38 0 -32 -17 -50 -47
-50 -21 0 -23 4 -23 50 0 46 2 50 23 50 13 0 28 -5 35 -12z"/>
<path d="M9707 4642 c-36 -40 -9 -102 45 -102 14 0 31 7 38 15 19 23 3 31 -20
10 -30 -27 -50 -13 -50 35 0 48 20 62 50 35 23 -21 39 -13 20 10 -17 21 -63
19 -83 -3z"/>
<path d="M9820 4601 c0 -34 4 -61 10 -61 6 0 10 11 10 25 0 15 6 25 15 25 8 0
22 -11 31 -25 9 -14 23 -25 30 -25 12 0 11 5 -2 26 -14 20 -15 27 -5 33 7 5
11 19 9 32 -3 21 -9 24 -50 27 l-48 3 0 -60z m73 37 c7 -23 -4 -38 -29 -38
-19 0 -24 5 -24 25 0 20 5 25 24 25 13 0 26 -6 29 -12z"/>
<path d="M10147 4642 c-36 -40 -9 -102 45 -102 14 0 31 7 38 15 19 23 3 31
-20 10 -30 -27 -50 -13 -50 35 0 48 20 62 50 35 23 -21 39 -13 20 10 -17 21
-63 19 -83 -3z"/>
<path d="M10440 4645 c0 -16 -9 -19 -48 -15 -26 2 -55 -18 -46 -32 3 -5 17
-13 31 -19 32 -12 20 -31 -15 -23 -21 5 -24 4 -16 -5 6 -7 24 -11 40 -9 38 4
44 35 10 48 -37 14 -32 26 9 26 34 0 35 -1 35 -37 l0 -36 56 -1 c48 0 56 3 64
21 l9 22 0 -22 c1 -14 7 -23 16 -23 11 0 15 11 15 41 0 52 24 48 28 -4 4 -48
20 -48 24 1 2 20 8 37 13 37 6 0 11 -17 13 -37 2 -21 8 -38 13 -38 6 0 9 19 7
43 l-3 42 -62 3 c-55 2 -63 0 -63 -15 -1 -17 -1 -17 -11 0 -10 17 -35 22 -63
11 -10 -4 -16 -18 -16 -40 0 -19 -5 -34 -11 -34 -6 0 -10 16 -9 38 1 20 2 45
1 55 -1 21 -21 23 -21 2z m95 -61 c0 -19 -5 -29 -15 -29 -16 0 -25 28 -16 51
10 25 31 10 31 -22z"/>
<path d="M10936 4648 c-3 -7 -11 -35 -20 -61 -11 -34 -12 -47 -4 -45 15 5 50
118 37 118 -5 0 -11 -6 -13 -12z"/>
<path d="M11020 4645 c-16 -19 -5 -34 36 -51 19 -8 34 -19 34 -24 0 -20 -31
-22 -50 -5 -23 21 -39 13 -20 -10 16 -20 64 -19 81 1 17 20 1 46 -32 54 -31 8
-39 40 -10 40 12 0 21 -4 21 -10 0 -5 7 -10 16 -10 14 0 14 3 4 15 -16 19 -64
19 -80 0z"/>
<path d="M11410 4600 c0 -33 4 -60 10 -60 6 0 10 27 10 60 0 33 -4 60 -10 60
-6 0 -10 -27 -10 -60z"/>
<path d="M11448 4653 c7 -3 16 -2 19 1 4 3 -2 6 -13 5 -11 0 -14 -3 -6 -6z"/>
<path d="M10250 4597 c0 -40 15 -57 52 -57 27 0 28 2 28 45 0 54 -17 60 -22 8
-4 -52 -28 -56 -28 -4 0 30 -4 41 -15 41 -10 0 -15 -10 -15 -33z"/>
<path d="M10722 4618 c-7 -7 -12 -21 -12 -33 0 -42 54 -62 80 -30 10 12 10 15
-3 15 -8 0 -17 -5 -19 -12 -2 -6 -10 -8 -16 -4 -22 13 -13 26 18 26 18 0 30 5
30 13 0 19 -21 37 -45 37 -12 0 -26 -5 -33 -12z m52 -13 c4 -10 -1 -15 -14
-15 -20 0 -26 11 -13 23 10 11 20 8 27 -8z"/>
<path d="M10810 4585 c0 -33 4 -45 15 -45 11 0 15 11 15 41 0 22 4 38 9 34 5
-3 12 -1 16 5 4 6 -6 10 -24 10 -30 0 -31 -1 -31 -45z"/>
<path d="M11120 4601 c0 -49 9 -61 46 -61 34 0 34 1 34 45 0 54 -17 60 -22 8
-4 -52 -28 -56 -28 -4 0 30 -4 41 -15 41 -10 0 -15 -10 -15 -29z"/>
<path d="M11220 4570 c0 -33 4 -60 10 -60 6 0 10 7 10 15 0 8 8 15 18 15 24 0
42 19 42 45 0 29 -19 45 -52 45 -28 0 -28 -1 -28 -60z m54 34 c9 -23 -3 -56
-17 -51 -22 7 -21 67 2 67 5 0 12 -7 15 -16z"/>
<path d="M11310 4571 c0 -34 4 -61 10 -61 6 0 10 6 10 14 0 7 14 16 31 20 28
5 30 8 27 43 -3 36 -5 38 -40 41 l-38 3 0 -60z m58 20 c5 -29 -13 -50 -29 -34
-15 15 -3 66 14 60 7 -2 14 -14 15 -26z"/>
<path d="M11440 4585 c0 -33 4 -45 15 -45 11 0 15 12 15 45 0 33 -4 45 -15 45
-11 0 -15 -12 -15 -45z"/>
<path d="M11492 4618 c-7 -7 -12 -21 -12 -33 0 -42 54 -62 80 -30 10 12 10 15
-2 15 -8 0 -19 -5 -25 -11 -6 -6 -16 -8 -22 -5 -22 14 -10 26 24 26 38 0 40 2
25 31 -12 21 -50 25 -68 7z m46 -16 c2 -7 -5 -12 -17 -12 -14 0 -19 5 -14 15
6 17 25 15 31 -3z"/>
<path d="M11580 4585 c0 -54 18 -60 22 -7 2 23 8 36 16 35 6 -2 12 2 12 7 0 6
-11 10 -25 10 -23 0 -25 -4 -25 -45z"/>
<path d="M10003 4613 c15 -2 37 -2 50 0 12 2 0 4 -28 4 -27 0 -38 -2 -22 -4z"/>
<path d="M10003 4573 c15 -2 37 -2 50 0 12 2 0 4 -28 4 -27 0 -38 -2 -22 -4z"/>
<path d="M1315 4530 c-116 -10 -201 -32 -290 -75 -180 -86 -295 -213 -295
-327 0 -78 45 -198 104 -277 79 -106 265 -183 499 -206 l67 -7 0 -159 0 -159
100 0 100 0 0 -155 0 -155 -225 0 -225 0 0 -115 0 -115 238 -1 c130 -1 228 -3
217 -6 -11 -2 -56 -11 -100 -19 -110 -21 -225 -68 -285 -115 -122 -96 -118
-204 12 -315 38 -33 208 -105 293 -124 106 -25 518 -7 635 26 110 32 198 96
231 169 22 48 24 135 5 174 -38 72 -147 135 -306 175 -57 15 -106 29 -109 31
-2 3 14 5 37 5 l42 0 0 115 0 115 -225 0 -225 0 0 160 0 160 -100 0 -100 0 0
154 0 155 58 6 c263 30 535 190 587 345 23 71 17 188 -15 251 -38 76 -131 154
-255 214 -60 29 -130 58 -155 63 -68 16 -214 21 -315 12z m263 -21 c26 -7 52
-16 59 -21 7 -5 17 -7 22 -3 6 3 32 -4 58 -16 27 -12 53 -23 60 -25 28 -6 141
-82 181 -122 66 -66 97 -140 97 -232 -1 -64 -5 -83 -30 -129 -16 -29 -54 -76
-85 -103 -73 -65 -251 -152 -352 -173 -91 -18 -283 -20 -359 -3 -30 6 -70 11
-89 11 -19 0 -29 2 -22 5 7 2 -20 19 -62 37 -41 18 -105 54 -143 79 -58 41
-62 42 -28 12 22 -20 81 -57 130 -82 102 -52 78 -50 -31 3 -63 30 -143 95
-143 116 -1 4 -12 24 -26 45 -37 56 -65 148 -65 212 0 86 37 151 125 217 73
55 181 112 252 133 23 7 41 16 39 19 -2 3 8 7 22 7 15 1 74 6 132 11 150 14
205 15 258 2z m472 -1614 l0 -105 -445 0 -445 0 0 105 0 105 445 0 445 0 0
-105z m-102 -141 c53 -8 117 -22 141 -30 24 -8 51 -12 60 -9 8 3 12 3 8 -1 -4
-5 23 -23 60 -40 78 -38 98 -38 26 0 -26 14 -43 25 -37 26 15 0 125 -67 153
-95 13 -13 24 -31 25 -42 1 -10 6 -35 10 -56 17 -80 -55 -181 -167 -233 -152
-69 -500 -92 -717 -48 -95 20 -157 44 -215 83 -50 34 -60 38 -49 19 5 -10 3
-10 -7 0 -8 7 -14 18 -14 25 -1 7 -6 11 -13 9 -7 -1 -11 1 -10 5 1 5 -10 27
-26 50 -40 60 -33 110 23 167 23 23 39 45 35 48 -3 4 15 18 41 33 25 15 49 25
52 21 4 -3 2 -6 -3 -6 -5 0 -27 -12 -49 -26 -23 -14 -31 -22 -17 -19 21 6 22
3 24 -52 1 -35 3 -45 5 -25 4 29 7 32 38 32 31 0 34 -3 38 -32 2 -18 4 -4 4
32 0 36 -2 53 -4 38 -4 -24 -9 -28 -39 -28 -30 0 -34 3 -34 26 0 21 10 30 63
55 34 16 51 27 37 23 -52 -14 -54 -14 -25 0 17 8 38 13 48 10 9 -3 34 0 55 7
51 17 254 47 325 48 31 1 101 -6 155 -15z"/>
<path d="M900 4200 c0 -33 4 -60 10 -60 6 0 10 14 10 30 0 27 3 30 30 30 27 0
30 -3 30 -30 0 -16 5 -30 10 -30 6 0 10 27 10 60 0 33 -4 60 -10 60 -5 0 -10
-11 -10 -25 0 -21 -5 -25 -30 -25 -25 0 -30 4 -30 25 0 14 -4 25 -10 25 -6 0
-10 -27 -10 -60z"/>
<path d="M1210 4200 c0 -33 4 -60 10 -60 6 0 10 27 10 60 0 33 -4 60 -10 60
-6 0 -10 -27 -10 -60z"/>
<path d="M1253 4243 c-11 -22 -2 -95 12 -100 6 -2 9 19 8 53 -2 62 -7 75 -20
47z"/>
<path d="M1302 4200 c1 -53 2 -58 7 -25 4 27 12 41 24 43 14 3 17 -4 17 -37 0
-23 5 -41 11 -41 6 0 9 17 7 43 -3 37 -6 42 -28 42 -16 0 -27 7 -32 20 -3 11
-6 -9 -6 -45z"/>
<path d="M1457 4242 c-46 -51 23 -138 71 -90 20 20 13 32 -7 14 -33 -30 -56
-17 -59 32 -4 47 16 64 49 44 26 -16 34 -15 19 3 -17 20 -53 19 -73 -3z"/>
<path d="M1560 4200 c0 -66 17 -83 22 -22 4 52 31 50 39 -3 l7 -40 -2 45 c-1
39 -4 45 -23 48 -13 2 -23 10 -23 18 0 8 -4 14 -10 14 -6 0 -10 -27 -10 -60z"/>
<path d="M1843 4200 c0 -36 2 -55 4 -42 5 27 19 28 33 2 6 -11 15 -20 21 -20
6 0 1 13 -10 28 -19 27 -19 30 -3 45 9 10 11 17 5 17 -6 0 -17 -7 -24 -17 -13
-15 -15 -13 -20 18 -5 24 -6 16 -6 -31z"/>
<path d="M1032 4218 c-7 -7 -12 -21 -12 -33 0 -41 45 -60 70 -30 9 10 9 15 1
15 -6 0 -11 -4 -11 -10 0 -15 -26 -12 -40 5 -11 13 -7 15 24 15 23 0 36 5 36
13 0 18 -21 37 -40 37 -9 0 -21 -5 -28 -12z m46 -16 c2 -7 -7 -12 -23 -12 -24
0 -26 2 -15 15 14 17 31 16 38 -3z"/>
<path d="M1127 4224 c-15 -15 -6 -24 13 -12 14 9 22 10 31 1 8 -8 3 -13 -21
-18 -25 -5 -31 -11 -28 -28 2 -17 10 -22 36 -23 33 -1 33 0 30 40 -3 35 -6 41
-28 44 -14 2 -29 0 -33 -4z m49 -50 c-3 -9 -6 -18 -6 -20 0 -2 -9 -4 -20 -4
-25 0 -27 27 -2 33 31 8 34 7 28 -9z"/>
<path d="M1659 4209 c-13 -26 2 -69 25 -69 23 0 46 11 46 22 0 6 -6 5 -15 -2
-16 -13 -45 -7 -45 10 0 5 14 10 30 10 31 0 39 17 18 38 -19 19 -46 14 -59 -9z
m59 -6 c2 -8 -6 -13 -22 -13 -25 0 -33 10 -19 24 10 10 36 3 41 -11z"/>
<path d="M1762 4218 c-16 -16 -15 -53 3 -68 18 -15 47 -10 53 10 5 13 3 13
-11 1 -23 -19 -47 -7 -47 24 0 31 24 43 47 24 14 -12 16 -12 11 1 -6 19 -40
24 -56 8z"/>
<path d="M1142 4048 c-7 -7 -12 -18 -12 -25 0 -12 12 -18 67 -38 18 -6 4 -35
-17 -35 -10 0 -26 7 -34 16 -9 8 -16 12 -16 7 0 -32 59 -44 81 -17 17 20 1 46
-32 54 -30 7 -39 40 -10 40 11 0 23 -4 26 -10 3 -5 11 -10 17 -10 7 0 6 6 -2
15 -15 18 -51 20 -68 3z"/>
<path d="M1413 4043 c-11 -22 -2 -95 12 -100 6 -2 9 19 8 53 -2 62 -7 75 -20
47z"/>
<path d="M1250 3985 c17 -40 17 -46 4 -60 -13 -13 -13 -15 -1 -15 8 0 23 24
36 56 23 61 21 88 -2 33 l-15 -34 -12 33 c-7 17 -16 32 -21 32 -4 0 0 -20 11
-45z"/>
<path d="M1325 4020 c-9 -14 3 -30 32 -41 32 -12 19 -33 -16 -24 -19 5 -23 4
-15 -5 17 -17 58 -8 62 12 2 12 -6 21 -22 28 -35 13 -34 34 0 26 17 -5 23 -3
19 4 -8 13 -52 13 -60 0z"/>
<path d="M1460 4004 c-14 -36 4 -66 37 -62 15 2 29 10 31 18 5 13 3 13 -11 1
-18 -14 -47 -9 -47 9 0 5 14 10 30 10 23 0 30 5 30 19 0 38 -56 42 -70 5z m58
-1 c2 -8 -6 -13 -22 -13 -25 0 -33 10 -19 24 10 10 36 3 41 -11z"/>
<path d="M1550 3985 c0 -25 5 -45 10 -45 6 0 10 18 10 40 0 29 4 40 15 40 11
0 15 -11 15 -40 0 -51 18 -53 22 -2 4 52 31 50 39 -3 l7 -40 -2 45 -1 45 -57
3 -58 2 0 -45z"/>
<path d="M1235 2946 c-39 -29 -14 -106 35 -106 30 0 53 26 53 60 0 34 -23 60
-53 60 -9 0 -25 -6 -35 -14z m64 -10 c31 -37 -9 -103 -46 -80 -37 23 -24 94
17 94 10 0 23 -6 29 -14z"/>
<path d="M1353 2900 c0 -36 2 -50 4 -32 4 29 7 32 38 32 31 0 34 -3 38 -32 2
-18 4 -4 4 32 0 36 -2 53 -4 38 -4 -24 -9 -28 -38 -28 -29 0 -34 4 -38 28 -2
15 -4 -2 -4 -38z"/>
<path d="M1480 2945 c-16 -19 -5 -34 37 -51 19 -8 33 -20 30 -27 -6 -20 -37
-20 -59 0 -15 12 -20 14 -16 4 7 -23 33 -34 61 -27 45 11 32 58 -18 68 -27 5
-25 32 3 36 12 2 22 -1 22 -7 0 -6 5 -11 11 -11 8 0 8 5 -1 15 -16 19 -54 19
-70 0z"/>
<path d="M1691 2904 c-12 -32 -19 -59 -16 -63 3 -3 8 5 12 17 7 30 59 31 68 2
3 -11 10 -20 16 -20 7 0 -21 86 -37 112 -11 18 -22 5 -43 -48z m45 -11 c-2 -3
-11 -3 -19 -1 -11 2 -12 9 -5 28 l10 25 9 -24 c5 -13 7 -26 5 -28z"/>
<path d="M1807 2942 c-46 -51 23 -138 71 -90 20 20 13 32 -7 14 -33 -30 -56
-17 -59 32 -4 47 16 64 49 44 26 -16 34 -15 19 3 -17 20 -53 19 -73 -3z"/>
<path d="M1922 2903 l-2 -63 38 2 c36 1 36 1 5 5 -31 4 -32 5 -36 61 l-3 57
-2 -62z"/>
<path d="M1592 2830 c0 -14 2 -19 5 -12 2 6 2 18 0 25 -3 6 -5 1 -5 -13z"/>
<path d="M1593 2590 c0 -36 2 -50 4 -32 2 17 2 47 0 65 -2 17 -4 3 -4 -33z"/>
<path d="M1629 2636 c-2 -11 -2 -39 0 -63 2 -32 7 -43 20 -42 10 0 11 2 4 6
-7 2 -13 20 -13 39 0 20 5 34 13 34 8 0 9 3 1 8 -6 4 -13 14 -16 22 -4 12 -6
11 -9 -4z"/>
<path d="M1670 2590 c0 -66 17 -83 22 -22 4 52 31 50 39 -3 l7 -40 -2 45 c-1
39 -4 45 -23 48 -13 2 -23 10 -23 18 0 8 -4 14 -10 14 -6 0 -10 -27 -10 -60z"/>
<path d="M1835 2636 c-21 -15 -25 -67 -5 -90 7 -9 23 -16 36 -16 24 0 59 28
49 39 -4 3 -11 -2 -16 -12 -22 -39 -73 -10 -67 39 4 36 31 53 58 36 11 -7 20
-8 20 -3 0 22 -48 27 -75 7z"/>
<path d="M1942 2590 c1 -53 2 -58 7 -25 4 27 12 41 24 43 14 3 17 -4 17 -37 0
-23 5 -41 11 -41 6 0 9 17 7 43 -3 37 -6 42 -28 42 -16 0 -27 7 -32 20 -3 11
-6 -9 -6 -45z"/>
<path d="M2212 2590 c-1 -53 1 -60 9 -40 l10 25 19 -22 c25 -31 36 -29 15 3
-16 24 -16 27 1 45 9 10 12 19 7 19 -6 0 -16 -7 -23 -15 -19 -23 -28 -18 -33
18 -2 17 -4 3 -5 -33z"/>
<path d="M2296 2632 c5 -4 26 -23 47 -42 21 -19 35 -27 32 -18 -7 17 -67 68
-81 68 -5 0 -4 -3 2 -8z"/>
<path d="M1400 2594 c-14 -36 4 -66 37 -62 15 2 29 10 31 18 5 13 3 13 -11 1
-18 -14 -47 -9 -47 9 0 5 14 10 30 10 23 0 30 5 30 19 0 38 -56 42 -70 5z m58
-1 c2 -8 -6 -13 -22 -13 -25 0 -33 10 -19 24 10 10 36 3 41 -11z"/>
<path d="M1500 2605 c-9 -10 -9 -15 -1 -15 6 0 11 5 11 10 0 6 9 10 20 10 30
0 24 -17 -11 -29 -45 -15 -36 -46 14 -48 33 -1 37 2 37 24 0 54 -41 83 -70 48z
m48 -42 c-4 -22 -38 -30 -38 -10 0 14 13 24 33 26 5 1 7 -7 5 -16z"/>
<path d="M2042 2608 c-7 -7 -12 -21 -12 -33 0 -41 45 -60 70 -30 15 18 7 19
-20 3 -17 -11 -22 -10 -30 2 -8 12 -3 16 25 18 39 4 40 5 25 33 -12 21 -40 25
-58 7z m46 -15 c2 -8 -6 -13 -22 -13 -19 0 -24 4 -19 15 6 18 34 16 41 -2z"/>
<path d="M2129 2599 c-24 -46 29 -93 61 -54 8 9 8 15 2 15 -6 0 -12 -5 -14
-12 -7 -21 -38 0 -38 27 0 27 31 48 38 27 2 -7 8 -12 14 -12 6 0 6 6 -2 15
-18 22 -47 18 -61 -6z"/>
<path d="M1357 2443 c-18 -17 -5 -44 29 -58 39 -16 41 -38 6 -43 -13 -2 -25 3
-28 12 -3 9 -10 16 -15 16 -6 0 -5 -9 1 -20 19 -35 80 -23 80 15 0 18 -8 26
-35 35 -19 6 -35 16 -35 21 0 16 32 23 51 10 11 -6 19 -7 19 -2 0 17 -59 29
-73 14z"/>
<path d="M1629 2436 c-2 -11 -2 -39 0 -63 2 -32 7 -43 20 -42 10 0 11 2 4 6
-7 2 -13 20 -13 39 0 20 5 34 13 34 8 0 9 3 1 8 -6 4 -13 14 -16 22 -4 12 -6
11 -9 -4z"/>
<path d="M1970 2395 c-12 -31 -20 -59 -16 -62 4 -4 9 3 13 15 7 30 59 31 68 2
3 -11 10 -20 15 -20 11 0 -35 113 -48 118 -5 1 -20 -22 -32 -53z m49 -7 c1 -5
-8 -8 -19 -8 -23 0 -24 4 -8 33 11 21 11 21 19 2 4 -11 8 -23 8 -27z"/>
<path d="M2070 2391 c0 -34 4 -61 10 -61 6 0 10 11 10 24 0 21 6 25 33 28 28
3 32 6 32 33 0 28 -3 30 -42 33 l-43 3 0 -60z m75 24 c0 -14 -8 -21 -27 -23
-24 -3 -28 0 -28 23 0 23 4 26 28 23 19 -2 27 -9 27 -23z"/>
<path d="M2193 2390 c0 -36 2 -50 4 -32 2 17 2 47 0 65 -2 17 -4 3 -4 -33z"/>
<path d="M1454 2408 c24 -61 29 -90 15 -100 -12 -8 -12 -9 1 -6 15 5 64 118
50 118 -4 0 -14 -15 -20 -32 l-13 -33 -10 33 c-5 17 -14 32 -19 32 -5 0 -7 -6
-4 -12z"/>
<path d="M1544 2405 c-8 -20 4 -35 27 -35 11 0 19 -7 19 -16 0 -12 -7 -15 -25
-12 -13 3 -22 1 -19 -3 12 -21 64 -1 64 24 0 4 -13 13 -30 18 -36 13 -40 33
-5 27 13 -3 22 -1 19 3 -9 14 -44 10 -50 -6z"/>
<path d="M1682 2408 c-7 -7 -12 -21 -12 -33 0 -41 45 -60 70 -30 15 18 7 19
-20 3 -17 -11 -22 -10 -30 2 -8 12 -3 16 25 18 39 4 40 5 25 33 -12 21 -40 25
-58 7z m46 -15 c2 -8 -6 -13 -22 -13 -19 0 -24 4 -19 15 6 18 34 16 41 -2z"/>
<path d="M1771 2370 l2 -45 6 40 c4 27 12 41 24 43 14 3 17 -4 18 -40 l2 -43
6 40 c4 27 12 41 24 43 14 3 17 -4 17 -37 0 -23 5 -41 10 -41 12 0 13 59 2 76
-4 7 -30 11 -59 11 l-53 -1 1 -46z"/>
<path d="M8622 4324 c-120 -31 -159 -52 -215 -114 -112 -125 -115 -317 -7
-415 l22 -20 -233 -5 -234 -6 241 -2 c222 -2 242 -3 258 -21 28 -30 131 -71
222 -88 78 -14 93 -14 167 0 149 30 251 100 323 224 28 47 34 129 14 202 -21
77 -112 171 -223 228 -39 19 -66 25 -132 26 -46 1 -81 5 -78 10 7 12 -27 7
-125 -19z m98 6 c0 -5 -12 -10 -27 -9 l-28 1 25 8 c14 4 26 8 28 9 1 1 2 -3 2
-9z m168 -31 c24 -5 48 -6 54 -3 6 4 8 3 5 -3 -3 -5 14 -19 39 -31 95 -46 175
-148 190 -240 13 -81 -39 -190 -119 -249 -17 -13 -32 -28 -32 -34 0 -15 -26
-28 -43 -21 -9 3 -13 1 -10 -4 4 -5 -4 -10 -15 -11 -12 0 -47 -10 -77 -22
-144 -54 -339 -3 -462 119 -45 45 -60 69 -73 114 -28 96 1 194 84 288 49 55
105 84 181 94 33 4 48 10 37 13 -29 10 194 1 241 -10z"/>
<path d="M8482 4098 l1 -63 7 50 c6 49 6 50 18 22 7 -16 12 -34 12 -42 0 -25
20 -27 29 -3 17 46 20 72 4 34 l-17 -39 -16 48 c-24 73 -40 70 -38 -7z"/>
<path d="M8578 4153 c-2 -5 -1 -33 3 -63 l6 -55 1 63 c2 57 -1 74 -10 55z"/>
<path d="M8849 4146 c-2 -11 -2 -39 0 -63 2 -32 7 -43 20 -42 10 0 11 2 4 6
-7 2 -13 20 -13 39 0 20 5 34 13 34 8 0 9 3 1 8 -6 4 -13 14 -16 22 -4 12 -6
11 -9 -4z"/>
<path d="M8633 4123 c-19 -7 -16 -70 3 -77 30 -11 44 -6 54 20 17 45 -13 75
-57 57z m42 -38 c0 -23 -4 -30 -20 -30 -21 0 -31 25 -21 51 11 28 41 12 41
-21z"/>
<path d="M8710 4084 c0 -54 18 -59 22 -7 2 26 8 39 20 41 13 3 18 -6 21 -40
l4 -43 -1 45 c-1 44 -2 45 -33 47 -33 1 -33 1 -33 -43z"/>
<path d="M8813 4085 c0 -27 2 -38 4 -22 2 15 2 37 0 50 -2 12 -4 0 -4 -28z"/>
<path d="M8900 4116 c-28 -35 11 -93 48 -70 35 22 22 84 -18 84 -10 0 -23 -7
-30 -14z m48 -25 c2 -13 -1 -28 -8 -35 -16 -15 -40 18 -33 45 7 27 37 20 41
-10z"/>
<path d="M8992 4080 c1 -40 2 -41 5 -10 2 19 11 40 20 47 13 10 13 12 -6 10
-18 -1 -21 -7 -19 -47z"/>
<path d="M8492 3948 c-7 -7 -12 -18 -12 -25 0 -12 12 -18 67 -38 18 -6 4 -35
-17 -35 -10 0 -26 7 -34 16 -9 8 -16 12 -16 7 0 -32 59 -44 81 -17 17 20 1 46
-32 54 -30 7 -39 40 -10 40 11 0 23 -4 26 -10 3 -5 11 -10 17 -10 7 0 6 6 -2
15 -15 18 -51 20 -68 3z"/>
<path d="M8763 3943 c-11 -22 -2 -95 12 -100 6 -2 9 19 8 53 -2 62 -7 75 -20
47z"/>
<path d="M8600 3885 c17 -40 17 -46 4 -60 -13 -13 -13 -15 -1 -15 8 0 23 24
36 56 23 61 21 88 -2 33 l-15 -34 -12 33 c-7 17 -16 32 -21 32 -4 0 0 -20 11
-45z"/>
<path d="M8675 3920 c-9 -14 3 -30 32 -41 32 -12 19 -33 -16 -24 -19 5 -23 4
-15 -5 17 -17 58 -8 62 12 2 12 -6 21 -22 28 -35 13 -34 34 0 26 17 -5 23 -3
19 4 -8 13 -52 13 -60 0z"/>
<path d="M8810 3904 c-14 -36 4 -66 37 -62 15 2 29 10 31 18 5 13 3 13 -11 1
-18 -14 -47 -9 -47 9 0 5 14 10 30 10 23 0 30 5 30 19 0 38 -56 42 -70 5z m58
-1 c2 -8 -6 -13 -22 -13 -25 0 -33 10 -19 24 10 10 36 3 41 -11z"/>
<path d="M8900 3885 c0 -25 5 -45 10 -45 6 0 10 18 10 40 0 29 4 40 15 40 11
0 15 -11 15 -40 0 -51 18 -53 22 -2 4 52 31 50 39 -3 l7 -40 -2 45 -1 45 -57
3 -58 2 0 -45z"/>
<path d="M8995 3730 c-3 -6 1 -7 9 -4 18 7 21 14 7 14 -6 0 -13 -4 -16 -10z"/>
<path d="M5704 4220 c0 -58 1 -81 3 -52 2 28 2 76 0 105 -2 28 -3 5 -3 -53z"/>
<path d="M6104 4220 c0 -58 1 -81 3 -52 2 28 2 76 0 105 -2 28 -3 5 -3 -53z"/>
<path d="M2162 4235 c-2 -55 10 -75 43 -75 33 0 45 20 43 75 -1 38 -2 41 -5
15 -7 -69 -12 -80 -38 -80 -26 0 -31 11 -38 80 -3 26 -4 23 -5 -15z"/>
<path d="M5562 4235 c-2 -55 10 -75 43 -75 33 0 45 20 43 75 -1 38 -2 41 -5
15 -7 -69 -12 -80 -38 -80 -26 0 -31 11 -38 80 -3 26 -4 23 -5 -15z"/>
<path d="M5816 4264 c-35 -35 -10 -104 38 -104 23 0 46 17 46 34 0 5 -8 2 -18
-7 -26 -24 -51 -21 -64 8 -8 19 -8 31 0 50 12 25 45 34 57 15 3 -5 11 -10 17
-10 7 0 6 6 -2 15 -16 20 -54 19 -74 -1z"/>
<path d="M5920 4220 c0 -33 4 -60 10 -60 6 0 10 13 10 29 0 25 5 30 28 34 l27
4 -27 2 c-21 1 -28 6 -28 20 0 15 8 21 33 24 28 3 26 4 -10 5 l-43 2 0 -60z"/>
<path d="M2910 4150 l0 -61 37 3 c29 2 41 9 53 31 13 24 13 30 0 55 -12 21
-24 28 -53 30 l-37 3 0 -61z m68 38 c7 -7 12 -24 12 -38 0 -32 -17 -50 -47
-50 -21 0 -23 4 -23 50 0 46 2 50 23 50 13 0 28 -5 35 -12z"/>
<path d="M2446 4088 c-9 -12 -16 -29 -16 -38 0 -27 30 -60 55 -60 25 0 61 28
50 39 -4 3 -11 -2 -16 -12 -22 -39 -73 -10 -67 39 4 36 31 53 58 36 11 -7 20
-8 20 -3 0 5 -7 12 -16 15 -30 11 -53 6 -68 -16z"/>
<path d="M2561 4048 c1 -35 4 -51 6 -35 6 35 36 36 59 2 9 -14 21 -25 26 -25
6 0 3 11 -5 24 -11 16 -12 27 -6 33 6 6 9 21 7 34 -2 20 -10 24 -45 27 l-43 3
1 -63z m74 27 c0 -15 -8 -21 -32 -23 -30 -3 -33 -1 -33 23 0 24 3 26 33 23 24
-2 32 -8 32 -23z"/>
<path d="M2203 4093 c96 -4 97 -4 97 -28 0 -23 4 -25 43 -23 l42 1 -37 4 c-33
4 -38 8 -38 29 l0 24 -102 -2 -103 -2 98 -3z"/>
<path d="M8112 3865 c-2 -55 10 -75 43 -75 33 0 45 20 43 75 -1 38 -2 41 -5
15 -7 -69 -12 -80 -38 -80 -26 0 -31 11 -38 80 -3 26 -4 23 -5 -15z"/>
<path d="M7604 3770 c0 -58 1 -81 3 -52 2 28 2 76 0 105 -2 28 -3 5 -3 -53z"/>
<path d="M6310 3770 l0 -61 37 3 c29 2 41 9 53 31 13 24 13 30 0 55 -12 21
-24 28 -53 30 l-37 3 0 -61z m68 38 c7 -7 12 -24 12 -38 0 -32 -17 -50 -47
-50 -21 0 -23 4 -23 50 0 46 2 50 23 50 13 0 28 -5 35 -12z"/>
<path d="M7346 3808 c-9 -12 -16 -29 -16 -38 0 -27 30 -60 55 -60 25 0 61 28
50 39 -4 3 -11 -2 -16 -12 -22 -39 -73 -10 -67 39 4 36 31 53 58 36 11 -7 20
-8 20 -3 0 5 -7 12 -16 15 -30 11 -53 6 -68 -16z"/>
<path d="M7461 3768 c1 -35 4 -51 6 -35 6 35 36 36 59 2 9 -14 21 -25 26 -25
6 0 3 11 -5 24 -11 16 -12 27 -6 33 6 6 9 21 7 34 -2 20 -10 24 -45 27 l-43 3
1 -63z m74 27 c0 -15 -8 -21 -32 -23 -30 -3 -33 -1 -33 23 0 24 3 26 33 23 24
-2 32 -8 32 -23z"/>
<path d="M1240 3550 l0 -61 37 3 c29 2 41 9 53 31 13 24 13 30 0 55 -12 21
-24 28 -53 30 l-37 3 0 -61z m68 38 c7 -7 12 -24 12 -38 0 -32 -17 -50 -47
-50 -21 0 -23 4 -23 50 0 46 2 50 23 50 13 0 28 -5 35 -12z"/>
<path d="M6710 3250 l0 -61 37 3 c29 2 41 9 53 31 13 24 13 30 0 55 -12 21
-24 28 -53 30 l-37 3 0 -61z m68 38 c7 -7 12 -24 12 -38 0 -32 -17 -50 -47
-50 -21 0 -23 4 -23 50 0 46 2 50 23 50 13 0 28 -5 35 -12z"/>
<path d="M1012 2925 c-2 -55 10 -75 43 -75 33 0 45 20 43 75 -1 38 -2 41 -5
15 -7 -69 -12 -80 -38 -80 -26 0 -31 11 -38 80 -3 26 -4 23 -5 -15z"/>
<path d="M4550 2850 l0 -61 37 3 c29 2 41 9 53 31 13 24 13 30 0 55 -12 21
-24 28 -53 30 l-37 3 0 -61z m68 38 c7 -7 12 -24 12 -38 0 -32 -17 -50 -47
-50 -21 0 -23 4 -23 50 0 46 2 50 23 50 13 0 28 -5 35 -12z"/>
<path d="M7280 2883 c0 -5 72 -7 160 -5 l160 3 0 -95 0 -96 -162 -3 -163 -3
168 -2 167 -2 0 30 c0 21 5 30 16 30 9 0 146 -25 306 -56 159 -30 294 -54 300
-52 6 2 -132 31 -306 63 l-316 60 0 68 0 67 -165 0 c-91 0 -165 -3 -165 -7z"/>
<path d="M8671 2869 c-138 -18 -278 -79 -347 -153 -64 -68 -93 -208 -58 -281
41 -86 194 -187 334 -220 142 -33 330 -13 463 48 78 36 172 119 163 144 -3 8
-2 12 3 8 16 -9 34 65 28 115 -8 67 -43 135 -97 189 -47 46 -171 122 -243 147
-43 15 -144 16 -246 3z m234 -9 c13 -6 4 -7 -30 -4 l-50 4 61 -14 c34 -8 70
-18 80 -23 11 -6 45 -23 77 -38 114 -55 190 -160 200 -275 2 -30 2 -49 0 -43
-3 7 -18 -14 -34 -47 -64 -127 -226 -202 -439 -203 -121 -1 -199 17 -307 68
-140 66 -213 162 -199 262 26 177 203 294 471 310 50 3 92 7 94 9 7 7 55 3 76
-6z"/>
<path d="M8352 2638 l1 -63 6 50 6 50 30 -47 c17 -27 33 -48 38 -48 4 0 6 28
5 63 -1 61 -1 61 -7 15 l-6 -47 -30 45 c-16 24 -33 44 -37 44 -5 0 -7 -28 -6
-62z"/>
<path d="M8570 2688 c0 -9 -6 -19 -12 -21 -10 -4 -10 -6 0 -6 7 -1 12 -16 12
-41 0 -31 4 -40 18 -40 12 0 14 3 4 8 -7 5 -12 27 -11 55 1 26 -1 50 -4 54 -4
3 -7 -1 -7 -9z"/>
<path d="M8653 2686 c-11 -19 -4 -106 8 -106 8 0 15 67 10 94 -1 5 4 13 11 17
10 7 9 9 -4 9 -9 0 -21 -7 -25 -14z"/>
<path d="M8920 2688 c0 -9 -6 -19 -12 -21 -10 -4 -10 -6 0 -6 7 -1 12 -16 12
-41 0 -31 4 -40 18 -40 12 0 14 3 4 8 -7 5 -12 27 -11 55 1 26 -1 50 -4 54 -4
3 -7 -1 -7 -9z"/>
<path d="M8471 2648 c-9 -25 -4 -55 11 -64 5 -3 20 -3 34 0 19 5 24 13 24 40
0 48 -53 67 -69 24z m54 -23 c0 -23 -4 -30 -20 -30 -21 0 -31 25 -21 51 11 28
41 12 41 -21z"/>
<path d="M8610 2625 c0 -25 5 -45 10 -45 6 0 10 20 10 45 0 25 -4 45 -10 45
-5 0 -10 -20 -10 -45z"/>
<path d="M8703 2625 c0 -27 2 -38 4 -22 2 15 2 37 0 50 -2 12 -4 0 -4 -28z"/>
<path d="M8742 2658 c-16 -16 -15 -53 3 -68 17 -14 47 -10 53 8 3 11 1 11 -17
0 -18 -11 -23 -11 -31 2 -5 8 -10 20 -10 25 0 6 5 17 10 25 8 13 13 13 31 2
18 -11 20 -11 17 0 -6 18 -40 22 -56 6z"/>
<path d="M8827 2664 c-4 -4 -7 -12 -7 -18 0 -6 5 -5 12 2 14 14 38 16 38 3 0
-5 -10 -13 -22 -17 -51 -15 -44 -56 9 -52 33 2 34 3 31 43 -3 34 -6 40 -28 43
-14 2 -29 0 -33 -4z m40 -59 c-4 -8 -13 -15 -22 -15 -21 0 -19 28 3 32 22 5
26 2 19 -17z"/>
<path d="M8960 2625 c0 -25 5 -45 10 -45 6 0 10 20 10 45 0 25 -4 45 -10 45
-5 0 -10 -20 -10 -45z"/>
<path d="M8999 2649 c-8 -16 -8 -28 0 -45 18 -41 71 -25 71 21 0 44 -50 61
-71 24z m56 -24 c0 -23 -4 -30 -20 -30 -21 0 -31 25 -21 51 11 28 41 12 41
-21z"/>
<path d="M9090 2624 c0 -54 18 -59 22 -6 4 52 31 50 39 -3 l7 -40 -2 45 c-1
43 -2 45 -33 47 -33 1 -33 1 -33 -43z"/>
<path d="M8497 2493 c-18 -17 -5 -44 29 -58 39 -16 41 -38 6 -43 -13 -2 -25 3
-28 12 -3 9 -10 16 -15 16 -6 0 -5 -9 1 -20 19 -35 80 -23 80 15 0 18 -8 26
-35 35 -19 6 -35 16 -35 21 0 16 32 23 51 10 11 -6 19 -7 19 -2 0 17 -59 29
-73 14z"/>
<path d="M8769 2486 c-2 -11 -2 -39 0 -63 2 -32 7 -43 20 -42 10 0 11 2 4 6
-7 2 -13 20 -13 39 0 20 5 34 13 34 8 0 9 3 1 8 -6 4 -13 14 -16 22 -4 12 -6
11 -9 -4z"/>
<path d="M8594 2458 c24 -61 29 -90 15 -100 -12 -8 -12 -9 1 -6 15 5 64 118
50 118 -4 0 -14 -15 -20 -32 l-13 -33 -10 33 c-5 17 -14 32 -19 32 -5 0 -7 -6
-4 -12z"/>
<path d="M8684 2455 c-8 -20 4 -35 27 -35 11 0 19 -7 19 -16 0 -12 -7 -15 -25
-12 -13 3 -22 1 -19 -3 12 -21 64 -1 64 24 0 4 -13 13 -30 18 -36 13 -40 33
-5 27 13 -3 22 -1 19 3 -9 14 -44 10 -50 -6z"/>
<path d="M8822 2458 c-7 -7 -12 -21 -12 -33 0 -41 45 -60 70 -30 9 10 9 15 1
15 -6 0 -11 -4 -11 -10 0 -15 -26 -12 -40 5 -11 13 -7 15 24 15 23 0 36 5 36
13 0 18 -21 37 -40 37 -9 0 -21 -5 -28 -12z m46 -16 c2 -7 -7 -12 -23 -12 -24
0 -26 2 -15 15 14 17 31 16 38 -3z"/>
<path d="M8911 2420 l2 -45 6 40 c4 27 12 41 24 43 14 3 17 -4 18 -40 l2 -43
6 40 c4 27 12 41 24 43 14 3 17 -4 17 -37 0 -23 5 -41 10 -41 12 0 13 59 2 76
-4 7 -30 11 -59 11 l-53 -1 1 -46z"/>
<path d="M7346 2828 c-9 -12 -16 -29 -16 -38 0 -27 30 -60 55 -60 25 0 61 28
50 39 -4 3 -11 -2 -16 -12 -22 -39 -73 -10 -67 39 4 36 31 53 58 36 11 -7 20
-8 20 -3 0 5 -7 12 -16 15 -30 11 -53 6 -68 -16z"/>
<path d="M7461 2788 c1 -35 4 -51 6 -35 6 35 36 36 59 2 9 -14 21 -25 26 -25
6 0 3 11 -5 24 -11 16 -12 27 -6 33 6 6 9 21 7 34 -2 20 -10 24 -45 27 l-43 3
1 -63z m74 27 c0 -15 -8 -21 -32 -23 -30 -3 -33 -1 -33 23 0 24 3 26 33 23 24
-2 32 -8 32 -23z"/>
<path d="M8112 2805 c-2 -55 10 -75 43 -75 33 0 45 20 43 75 -1 38 -2 41 -5
15 -7 -69 -12 -80 -38 -80 -26 0 -31 11 -38 80 -3 26 -4 23 -5 -15z"/>
<path d="M4080 2833 c0 -5 72 -7 160 -5 l160 3 0 -96 0 -95 -162 -2 c-90 -1
-126 -4 -80 -5 l82 -4 0 -99 0 -99 -82 39 c-132 61 -193 74 -353 74 -160 0
-221 -13 -352 -74 -101 -47 -182 -120 -220 -199 -39 -79 -39 -173 0 -252 38
-79 119 -152 220 -199 131 -61 192 -74 352 -74 160 0 221 13 352 74 138 64
233 174 247 285 l6 40 -11 -35 c-31 -99 -44 -125 -98 -179 -234 -236 -752
-239 -989 -4 -70 70 -96 128 -96 218 0 90 26 148 96 218 235 233 755 232 985
-1 61 -61 79 -92 94 -162 6 -28 13 -49 16 -46 11 10 -20 106 -48 151 -21 33
-29 58 -29 90 l0 45 -40 0 -40 0 0 95 0 95 80 0 80 0 0 44 0 43 198 10 197 10
-197 1 -198 2 0 50 0 50 -165 0 c-91 0 -165 -3 -165 -7z m240 -438 c0 -19 -1
-35 -3 -35 -2 0 -18 16 -37 35 l-34 35 37 0 c36 0 37 -1 37 -35z"/>
<path d="M4146 2778 c-9 -12 -16 -29 -16 -38 0 -27 30 -60 55 -60 25 0 61 28
50 39 -4 3 -11 -2 -16 -12 -22 -39 -73 -10 -67 39 4 36 31 53 58 36 11 -7 20
-8 20 -3 0 5 -7 12 -16 15 -30 11 -53 6 -68 -16z"/>
<path d="M4261 2738 c1 -35 4 -51 6 -35 6 35 36 36 59 2 9 -14 21 -25 26 -25
6 0 3 11 -5 24 -11 16 -12 27 -6 33 6 6 9 21 7 34 -2 20 -10 24 -45 27 l-43 3
1 -63z m74 27 c0 -15 -8 -21 -32 -23 -30 -3 -33 -1 -33 23 0 24 3 26 33 23 24
-2 32 -8 32 -23z"/>
<path d="M5010 2540 l0 -61 37 3 c29 2 41 9 53 31 13 24 13 30 0 55 -12 21
-24 28 -53 30 l-37 3 0 -61z m68 38 c7 -7 12 -24 12 -38 0 -32 -17 -50 -47
-50 -21 0 -23 4 -23 50 0 46 2 50 23 50 13 0 28 -5 35 -12z"/>
<path d="M6110 2490 l0 -61 37 3 c29 2 41 9 53 31 13 24 13 30 0 55 -12 21
-24 28 -53 30 l-37 3 0 -61z m68 38 c7 -7 12 -24 12 -38 0 -32 -17 -50 -47
-50 -21 0 -23 4 -23 50 0 46 2 50 23 50 13 0 28 -5 35 -12z"/>
<path d="M6002 2458 l-2 -78 130 0 130 0 0 -95 0 -95 -80 0 -80 0 0 -105 0
-105 80 0 80 0 3 -167 3 -168 2 167 2 167 83 4 c45 1 9 4 -80 5 l-163 2 0 95
0 96 160 -3 c88 -2 160 0 160 5 0 4 -36 7 -80 7 l-80 0 0 100 0 100 -130 0
-129 0 -4 73 -3 72 -2 -77z"/>
<path d="M4412 2355 c-2 -55 10 -75 43 -75 33 0 45 20 43 75 -1 38 -2 41 -5
15 -7 -69 -12 -80 -38 -80 -26 0 -31 11 -38 80 -3 26 -4 23 -5 -15z"/>
<path d="M3313 2250 c0 -36 2 -50 4 -32 4 29 7 32 38 32 31 0 34 -3 38 -32 2
-18 4 -4 4 32 0 36 -2 53 -4 38 -4 -24 -9 -28 -38 -28 -29 0 -34 4 -38 28 -2
15 -4 -2 -4 -38z"/>
<path d="M3812 2253 l-2 -63 38 2 c36 1 36 1 5 5 -31 4 -32 5 -36 61 l-3 57
-2 -62z"/>
<path d="M4273 2293 c-11 -22 -2 -95 12 -100 6 -2 9 19 8 53 -2 62 -7 75 -20
47z"/>
<path d="M3431 2258 c-9 -25 -4 -55 11 -64 5 -3 20 -3 34 0 19 5 24 13 24 40
0 48 -53 67 -69 24z m54 -23 c0 -23 -4 -30 -20 -30 -21 0 -31 25 -21 51 11 28
41 12 41 -21z"/>
<path d="M3520 2235 c0 -25 5 -45 10 -45 6 0 10 18 10 40 0 29 4 40 15 40 11
0 15 -11 15 -40 0 -51 18 -53 22 -2 4 52 31 50 39 -3 l7 -40 -2 45 -1 45 -57
3 -58 2 0 -45z"/>
<path d="M3672 2268 c-7 -7 -12 -21 -12 -33 0 -41 45 -60 70 -30 8 9 8 15 2
15 -6 0 -12 -5 -14 -12 -5 -14 -38 -4 -38 12 0 5 14 10 30 10 18 0 30 5 30 13
0 18 -21 37 -40 37 -9 0 -21 -5 -28 -12z m52 -13 c4 -11 -1 -15 -19 -15 -24 0
-32 10 -18 23 11 12 31 8 37 -8z"/>
<path d="M3913 2274 c-7 -3 -13 -10 -13 -16 0 -6 6 -6 15 2 8 7 23 9 32 5 15
-5 12 -9 -15 -21 -46 -19 -41 -48 9 -50 l35 -2 -5 42 c-6 41 -24 54 -58 40z
m45 -51 c-4 -20 -39 -25 -45 -6 -4 10 11 18 40 22 5 0 7 -7 5 -16z"/>
<path d="M3990 2275 c0 -2 7 -23 17 -46 16 -40 15 -42 -2 -55 -17 -13 -17 -14
-1 -14 18 0 40 42 50 96 6 28 5 27 -10 -6 l-17 -35 -13 33 c-12 28 -24 42 -24
27z"/>
<path d="M4093 2273 c-19 -7 -16 -70 3 -77 30 -11 44 -6 54 20 17 45 -13 75
-57 57z m42 -38 c0 -23 -4 -30 -20 -30 -21 0 -31 25 -21 51 11 28 41 12 41
-21z"/>
<path d="M4184 2240 c1 -43 2 -45 34 -47 32 -1 32 -1 32 43 0 54 -18 59 -22 7
-4 -53 -31 -51 -39 2 l-7 40 2 -45z"/>
<path d="M6166 2128 c-9 -12 -16 -29 -16 -38 0 -27 30 -60 55 -60 25 0 61 28
50 39 -4 3 -11 -2 -16 -12 -22 -39 -73 -10 -67 39 4 36 31 53 58 36 11 -7 20
-8 20 -3 0 5 -7 12 -16 15 -30 11 -53 6 -68 -16z"/>
<path d="M6281 2088 c1 -35 4 -51 6 -35 6 35 36 36 59 2 9 -14 21 -25 26 -25
6 0 3 11 -5 24 -11 16 -12 27 -6 33 6 6 9 21 7 34 -2 20 -10 24 -45 27 l-43 3
1 -63z m74 27 c0 -15 -8 -21 -32 -23 -30 -3 -33 -1 -33 23 0 24 3 26 33 23 24
-2 32 -8 32 -23z"/>
<path d="M3542 2098 c-7 -7 -12 -18 -12 -25 0 -12 12 -18 67 -38 18 -6 4 -35
-17 -35 -10 0 -26 7 -34 16 -9 8 -16 12 -16 7 0 -32 59 -44 81 -17 17 20 1 46
-32 54 -30 7 -39 40 -10 40 11 0 23 -4 26 -10 3 -5 11 -10 17 -10 7 0 6 6 -2
15 -15 18 -51 20 -68 3z"/>
<path d="M3652 2068 c-7 -7 -12 -21 -12 -33 0 -41 45 -60 70 -30 14 17 0 21
-17 4 -13 -13 -43 -5 -43 11 0 5 16 10 35 10 38 0 40 2 25 31 -12 21 -40 25
-58 7z m46 -15 c2 -8 -6 -13 -22 -13 -19 0 -24 4 -19 15 6 18 34 16 41 -2z"/>
<path d="M3741 2033 l2 -48 6 40 c8 56 33 58 54 3 18 -46 27 -43 46 11 15 45
6 52 -12 10 l-15 -34 -12 33 c-10 26 -17 32 -41 32 -28 0 -29 -1 -28 -47z"/>
<path d="M3883 2035 c0 -27 2 -38 4 -22 2 15 2 37 0 50 -2 12 -4 0 -4 -28z"/>
<path d="M3922 2068 c-6 -6 -12 -21 -12 -33 0 -41 45 -60 70 -30 8 9 8 15 2
15 -6 0 -12 -5 -14 -12 -7 -21 -38 0 -38 26 0 31 16 42 37 24 14 -11 16 -11
11 2 -6 19 -40 24 -56 8z"/>
<path d="M4013 2074 c-7 -3 -13 -21 -13 -40 0 -27 5 -35 24 -40 27 -6 46 1 46
18 0 7 -5 6 -15 -2 -16 -13 -45 -7 -45 10 0 5 16 10 35 10 31 0 34 2 26 23 -8
22 -34 31 -58 21z m45 -21 c2 -8 -6 -13 -22 -13 -25 0 -33 10 -19 24 10 10 36
3 41 -11z"/>
<path d="M6710 1919 c-206 -35 -370 -144 -441 -294 -30 -63 -52 -194 -32 -182
7 5 9 0 6 -13 -13 -47 107 -188 217 -255 114 -69 254 -117 381 -130 76 -8 232
8 304 32 129 41 332 154 318 176 -3 5 -1 7 5 3 24 -15 100 119 109 193 6 53
-15 149 -48 213 -35 68 -111 134 -207 179 -48 22 -96 45 -106 51 -60 32 -372
49 -506 27z m412 -24 c99 -23 217 -71 277 -112 122 -85 180 -226 151 -368 -10
-50 -20 -67 -69 -118 -31 -32 -56 -62 -56 -65 0 -4 -4 -7 -10 -7 -5 0 -32 -15
-58 -33 -218 -152 -569 -167 -828 -37 -123 61 -224 156 -250 233 -6 18 -14 30
-18 28 -4 -3 -7 30 -6 72 0 65 5 85 29 128 80 146 224 244 421 287 54 12 357
6 417 -8z"/>
<path d="M6468 1653 c20 -4 22 -10 22 -59 0 -30 5 -54 10 -54 6 0 10 24 10 54
0 49 2 55 23 59 12 2 -3 4 -33 4 -30 0 -45 -2 -32 -4z"/>
<path d="M6880 1600 l0 -60 33 0 c47 0 57 11 54 56 -3 53 -12 64 -53 64 l-34
0 0 -60z m70 30 c0 -15 -7 -20 -25 -20 -18 0 -25 5 -25 20 0 15 7 20 25 20 18
0 25 -5 25 -20z m4 -39 c11 -18 -6 -41 -30 -41 -19 0 -24 5 -24 25 0 20 5 25
24 25 14 0 27 -4 30 -9z"/>
<path d="M7320 1645 c0 -8 -9 -15 -20 -15 -28 0 -45 -36 -31 -66 8 -19 18 -24
41 -22 30 2 30 3 30 60 0 32 -4 58 -10 58 -5 0 -10 -7 -10 -15z m5 -44 c8 -26
-5 -53 -24 -49 -29 6 -27 68 3 68 8 0 17 -8 21 -19z"/>
<path d="M6563 1585 c0 -27 2 -38 4 -22 2 15 2 37 0 50 -2 12 -4 0 -4 -28z"/>
<path d="M6601 1581 l2 -46 6 40 c4 26 11 40 21 40 10 0 17 -14 21 -40 l5 -40
5 40 c3 27 9 41 21 43 13 3 18 -6 21 -40 l4 -43 -1 45 -1 45 -52 1 -53 1 1
-46z"/>
<path d="M6739 1609 c-13 -26 2 -69 25 -69 23 0 46 11 46 22 0 6 -6 5 -15 -2
-16 -13 -45 -7 -45 10 0 5 14 10 30 10 31 0 39 17 18 38 -19 19 -46 14 -59 -9z
m59 -6 c2 -8 -6 -13 -22 -13 -25 0 -33 10 -19 24 10 10 36 3 41 -11z"/>
<path d="M7000 1615 c-8 -10 -9 -15 -1 -15 6 0 11 5 11 10 0 6 9 10 20 10 30
0 24 -17 -11 -29 -44 -15 -36 -45 12 -47 l35 -2 -5 42 c-5 32 -11 42 -27 44
-11 2 -27 -4 -34 -13z m50 -40 c0 -19 -24 -30 -41 -19 -9 5 -7 11 6 21 24 17
35 17 35 -2z"/>
<path d="M7091 1616 c-12 -15 -2 -27 32 -39 28 -10 9 -30 -22 -22 -19 5 -23 4
-15 -5 17 -17 58 -8 62 12 2 12 -6 21 -22 28 -35 13 -34 34 0 26 17 -5 23 -3
19 4 -9 14 -40 12 -54 -4z"/>
<path d="M7182 1618 c-7 -7 -12 -21 -12 -33 0 -41 45 -60 70 -30 15 18 7 19
-20 3 -17 -11 -22 -10 -30 2 -8 12 -3 16 25 18 39 4 40 5 25 33 -12 21 -40 25
-58 7z m46 -15 c2 -8 -6 -13 -22 -13 -19 0 -24 4 -19 15 6 18 34 16 41 -2z"/>
<path d="M6602 1451 c-23 -15 -9 -45 26 -55 22 -6 32 -14 30 -25 -5 -23 -39
-26 -55 -5 -7 10 -15 15 -18 12 -11 -10 26 -38 49 -38 28 0 51 24 43 44 -3 8
-22 19 -41 26 -20 6 -36 16 -36 21 0 17 32 23 52 10 16 -10 19 -10 16 1 -5 16
-48 22 -66 9z"/>
<path d="M6700 1404 c-14 -36 4 -66 37 -62 15 2 29 10 31 18 5 13 3 13 -11 1
-18 -14 -47 -9 -47 9 0 5 14 10 30 10 23 0 30 5 30 19 0 38 -56 42 -70 5z m58
-1 c2 -8 -6 -13 -22 -13 -25 0 -33 10 -19 24 10 10 36 3 41 -11z"/>
<path d="M6790 1385 c0 -25 5 -45 10 -45 6 0 10 18 10 40 0 32 4 40 18 40 13
0 23 -13 32 -40 16 -47 24 -50 38 -12 5 15 13 35 17 45 4 9 3 17 -2 17 -6 0
-15 -15 -20 -32 l-11 -33 -13 33 c-11 27 -19 32 -46 32 -32 0 -33 -1 -33 -45z"/>
<path d="M6943 1385 c0 -27 2 -38 4 -22 2 15 2 37 0 50 -2 12 -4 0 -4 -28z"/>
<path d="M6982 1418 c-16 -16 -15 -53 3 -68 17 -14 47 -10 53 8 3 11 1 11 -17
0 -18 -11 -23 -11 -31 2 -5 8 -10 20 -10 25 0 6 5 17 10 25 8 13 13 13 31 2
18 -11 20 -11 17 0 -6 18 -40 22 -56 6z"/>
<path d="M7059 1409 c-13 -26 2 -69 25 -69 23 0 46 11 46 22 0 6 -6 5 -15 -2
-16 -13 -45 -7 -45 10 0 5 14 10 30 10 31 0 39 17 18 38 -19 19 -46 14 -59 -9z
m59 -6 c2 -8 -6 -13 -22 -13 -25 0 -33 10 -19 24 10 10 36 3 41 -11z"/>
<path d="M7154 1415 c-8 -20 4 -35 27 -35 11 0 19 -7 19 -16 0 -12 -7 -15 -26
-11 -16 3 -22 1 -16 -5 15 -15 56 -5 60 15 3 12 -6 21 -27 28 -37 13 -42 33
-6 27 13 -3 22 -1 19 3 -9 14 -44 10 -50 -6z"/>
<path d="M5012 1765 c-2 -55 10 -75 43 -75 33 0 45 20 43 75 -1 38 -2 41 -5
15 -7 -69 -12 -80 -38 -80 -26 0 -31 11 -38 80 -3 26 -4 23 -5 -15z"/>
<path d="M6112 1665 c-2 -55 10 -75 43 -75 33 0 45 20 43 75 -1 38 -2 41 -5
15 -7 -69 -12 -80 -38 -80 -26 0 -31 11 -38 80 -3 26 -4 23 -5 -15z"/>
<path d="M4386 1388 c-9 -12 -16 -29 -16 -38 0 -27 30 -60 55 -60 25 0 61 28
50 39 -4 3 -11 -2 -16 -12 -21 -36 -69 -13 -69 33 0 14 5 31 12 38 15 15 48
16 48 2 0 -5 5 -10 11 -10 8 0 8 5 -1 15 -18 22 -57 18 -74 -7z"/>
<path d="M4689 1396 c-2 -11 -2 -39 0 -63 2 -32 7 -43 20 -42 10 0 11 2 4 6
-7 2 -13 20 -13 39 0 20 5 34 13 34 8 0 9 3 1 8 -6 4 -13 14 -16 22 -4 12 -6
11 -9 -4z"/>
<path d="M4880 1350 c0 -33 4 -60 10 -60 6 0 10 27 10 60 0 33 -4 60 -10 60
-6 0 -10 -27 -10 -60z"/>
<path d="M4970 1351 l0 -61 34 0 c47 0 59 19 49 72 -8 41 -11 43 -46 46 l-37
3 0 -60z m65 29 c0 -8 -10 -16 -22 -18 -18 -3 -23 2 -23 18 0 16 5 21 23 18
12 -2 22 -10 22 -18z m5 -55 c0 -20 -5 -25 -25 -25 -20 0 -25 5 -25 25 0 20 5
25 25 25 20 0 25 -5 25 -25z"/>
<path d="M5410 1390 c0 -13 -5 -18 -15 -14 -35 14 -61 -46 -33 -74 7 -7 25
-12 40 -12 28 0 28 1 28 60 0 33 -4 60 -10 60 -5 0 -10 -9 -10 -20z m-5 -54
c0 -35 -20 -45 -34 -17 -14 25 -3 53 18 49 10 -2 16 -13 16 -32z"/>
<path d="M4500 1366 c-28 -35 11 -93 48 -70 35 22 22 84 -18 84 -10 0 -23 -7
-30 -14z m55 -15 c8 -26 -5 -53 -24 -49 -29 6 -27 68 3 68 8 0 17 -8 21 -19z"/>
<path d="M4590 1334 c0 -24 5 -44 10 -44 6 0 10 18 10 41 0 33 3 40 18 37 11
-2 19 -16 23 -43 l7 -40 -2 45 c-1 44 -2 45 -33 46 -32 1 -33 0 -33 -42z"/>
<path d="M4730 1333 c0 -24 5 -43 10 -43 6 0 10 18 10 39 0 29 5 41 18 44 9 3
5 4 -10 4 -26 -1 -28 -4 -28 -44z"/>
<path d="M4791 1358 c-9 -25 -4 -55 11 -64 5 -3 20 -3 34 0 19 5 24 13 24 40
0 48 -53 67 -69 24z m54 -23 c0 -23 -4 -30 -20 -30 -21 0 -31 25 -21 51 11 28
41 12 41 -21z"/>
<path d="M5093 1374 c-7 -3 -13 -10 -13 -16 0 -6 6 -6 15 2 8 7 23 9 32 5 15
-5 12 -9 -15 -21 -46 -19 -41 -48 9 -50 l35 -2 -5 42 c-6 41 -24 54 -58 40z
m45 -51 c-4 -20 -39 -25 -45 -6 -4 10 11 18 40 22 5 0 7 -7 5 -16z"/>
<path d="M5175 1370 c-9 -14 3 -30 32 -41 32 -12 19 -33 -16 -24 -19 5 -23 4
-15 -5 17 -17 58 -8 62 12 2 12 -6 21 -22 28 -35 13 -34 34 0 26 17 -5 23 -3
19 4 -8 13 -52 13 -60 0z"/>
<path d="M5272 1368 c-7 -7 -12 -21 -12 -33 0 -41 45 -60 70 -30 14 17 0 21
-17 4 -13 -13 -43 -5 -43 11 0 5 16 10 35 10 38 0 40 2 25 31 -12 21 -40 25
-58 7z m46 -15 c2 -8 -6 -13 -22 -13 -19 0 -24 4 -19 15 6 18 34 16 41 -2z"/>
<path d="M4602 1201 c-23 -15 -9 -45 26 -55 22 -6 32 -14 30 -25 -5 -23 -39
-26 -55 -5 -7 10 -15 15 -18 12 -11 -10 26 -38 49 -38 28 0 51 24 43 44 -3 8
-22 19 -41 26 -20 6 -36 16 -36 21 0 17 32 23 52 10 16 -10 19 -10 16 1 -5 16
-48 22 -66 9z"/>
<path d="M4700 1154 c-14 -36 4 -66 37 -62 15 2 29 10 31 18 5 13 3 13 -11 1
-18 -14 -47 -9 -47 9 0 5 14 10 30 10 23 0 30 5 30 19 0 38 -56 42 -70 5z m58
-1 c2 -8 -6 -13 -22 -13 -25 0 -33 10 -19 24 10 10 36 3 41 -11z"/>
<path d="M4790 1135 c0 -25 5 -45 10 -45 6 0 10 18 10 40 0 32 4 40 18 40 13
0 23 -13 32 -40 16 -47 24 -50 38 -12 5 15 13 35 17 45 4 9 3 17 -2 17 -6 0
-15 -15 -20 -32 l-11 -33 -13 33 c-11 27 -19 32 -46 32 -32 0 -33 -1 -33 -45z"/>
<path d="M4943 1135 c0 -27 2 -38 4 -22 2 15 2 37 0 50 -2 12 -4 0 -4 -28z"/>
<path d="M4982 1168 c-16 -16 -15 -53 3 -68 17 -14 47 -10 53 8 3 11 1 11 -17
0 -18 -11 -23 -11 -31 2 -5 8 -10 20 -10 25 0 6 5 17 10 25 8 13 13 13 31 2
18 -11 20 -11 17 0 -6 18 -40 22 -56 6z"/>
<path d="M5059 1159 c-13 -26 2 -69 25 -69 23 0 46 11 46 22 0 6 -6 5 -15 -2
-16 -13 -45 -7 -45 10 0 5 14 10 30 10 31 0 39 17 18 38 -19 19 -46 14 -59 -9z
m59 -6 c2 -8 -6 -13 -22 -13 -25 0 -33 10 -19 24 10 10 36 3 41 -11z"/>
<path d="M5154 1165 c-8 -20 4 -35 27 -35 11 0 19 -7 19 -16 0 -12 -7 -15 -26
-11 -16 3 -22 1 -16 -5 15 -15 56 -5 60 15 3 12 -6 21 -27 28 -37 13 -42 33
-6 27 13 -3 22 -1 19 3 -9 14 -44 10 -50 -6z"/>
</g>
</svg>
